<?xml version="1.0" standalone="no"?>
<!DOCTYPE svg PUBLIC "-//W3C//DTD SVG 1.1//EN" "http://www.w3.org/Graphics/SVG/1.1/DTD/svg11.dtd">
<svg xmlns="http://www.w3.org/2000/svg" xmlns:xlink="http://www.w3.org/1999/xlink" version="1.1">
	<metadata>
		Created by FontForge 20150824 at Mon Oct 31 19:06:49 2016 By Everything FontsCreated by FontForge 20150824 at Tue Sep 20 19:36:52 2016 By Everything FontsCreated by FontForge 20150824 at Tue Sep 20 01:45:45 2016 By Everything Fonts
	</metadata>
	<defs>
		<font id="seti" horiz-adv-x="516">
			<font-face font-family="seti" font-weight="400" font-stretch="normal" units-per-em="516" panose-1="2 0 5 3 0 0 0 0 0 0" ascent="516" descent="0" bbox="78.8788 59 450 412" underline-thickness="0" underline-position="5" unicode-range="U+E000-E088" />
			<missing-glyph />
			<glyph glyph-name="ai" unicode="&#xe001;" d="M386 371h-273v-258h273v258zM271 184h-15h-3l-2 3l-10 34q0 3 -5 3h-32q-2 0 -3 -1l-2 -2l-9 -34q0 -3 -3 -3h-17q-3 0 -3 3l37 129l2 3q1 1 3 0h22q3 0 3 -3l40 -131q0 -1 -3 -1zM316 192q0 -6 -1 -7t-7 -1h-10q-2 0 -2.5 0.5t-0.5 2.5v99q0 2 1 3t2 -1h14q3 0 3 -2q1 -32 1 -94zM305 300q-4 0 -8 2.5t-4 7.5t3.5 8.5t8.5 3.5t9 -3t4 -7q0 -12 -13 -12zM222 290q0 1 -1 1t-2 -1l-2 -4q-5 -28 -10 -40q0 -3 2 -3h20q5 0 2 3q-3 25 -9 44z" />
			<glyph glyph-name="apache" unicode="&#xe002;" d="M400 227h-1v1l-3 3h-1l-1 1h-1l-3 2h-1l-4 4h-2l-1 1l-4 1l-1 1h-1l-2 1h-3l-1 -1v1l-2 2h-7l-1 -1l-3 2h-7l-2 1h-3l-5 2l-2 2l-4 2h-5l-1 1h-4l-1 1h-4l-6 2h-3l-3 2l-3 1h-2l-4 1h-4l-2 1l-2 2h-12l-7 2h-9l-6 2h-4l-3 2h-5l-2 2l-4 1l-5 2l-3 -1l-2 2h-4l-3 2h-2l-3 1v-1l-7 3h-2l-3 2h-5l-2 2h-2l-2 1h-2l-3 -1l-5 2h-2l-4 2h-4l-1 -1l-2 1l-1 2h-4l-1 -1l-1 1h-5l-1 -1l-2 1l-2 -1h-2l-2 -1l-2 -4v-1l-1 -2v-11l-3 1v3l1 5l-1 5v5l1 2v1l-3 -3v1h-1l-1 1l1 -4l-1 -1v-1l-1 3v7l1 2l-1 -1l-2 -4v-6l1 -3h-1l-4 7v3l-3 -4v-1l1 -1v-2l2 -3h-2l-1 1l5 -3l3 -4l4 -4q-21 8 -48 21q2 -3 6 -6l9 -6q6 -3 8 -5q8 -4 22 -9l-2 -1h-6l-1 -1h-2l-7 2l4 -3h2h-2l-6 -4l-2 -2v-2l-1 -1h1l1 2l3 2h2l3 2h3l6 4h1h-1l-3 -3l-13 -7h4l1 1h2h-1l-1 -2v-6l3 5l2 2l3 1l1 1v-2l-1 -1l1 -2v-3l1 -2v2l1 4l4 6l3 6l3 -1l-5 -9v-7l2 -3l4 -2l4 -4h1l1 -1h2l3 -3h6l1 -2l2 -1l5 -1l1 -1h2l5 -3h3l3 -1l6 -3h5l1 -1h5l6 -2l3 1l3 -2h6l2 -1h5l7 -2l2 1l2 -1h2l3 1l2 -1h6l6 -2h5v1l2 -1h4l2 -1h10l2 -1h4l5 -2h2l4 2l2 -1h5l4 -1l5 2l3 -1h3l2 1h1l2 -1l4 1l1 -1h3l2 1l2 -1h4l6 3h7l2 -1h4l2 1l5 -2h2l3 2l2 -1h4l1 1h3l2 1h3l2 1h3l1 1h2l1 1h2l1 1h2v2l1 1h1v3zM143 271q-1 0 -2 1v7v-2l2 -5v-1zM138 267v0l-1 -1h-1h1zM134 263l1 1l2 2h1h-1h3l-1 -1zM141 265l-1 -1l-2 -1l2 3q0 -1 1 -1v0zM401 227q-10 1 -43 4q-47 3 -61 5q-36 3 -53 6q-23 3 -49 10q-20 6 -47 15q-7 2 -15 6q-10 3 -16 7l-17 11q-5 3 -6 6q31 -15 50 -23q22 -8 44 -14t59 -13q9 -2 33 -5q12 -1 46 -5q31 -4 45 -5q22 -3 30 -5v0zM313 216v0l-3 -1h-5l-3 1l-2 2l-3 1l-2 3l-7 6l-4 5l-1 2l-3 2h-2l10 -1l15 -15l7 -4zM322 216v0h-9l-3 1l-6 3l-4 4l-2 1l-8 10l-2 1h6l2 -1h5l3 -5l3 -3l2 -3l5 -5l3 -2h2l1 -1h2zM327 216v0h-8l-6 4l-7 7l-6 8h10l1 -2l11 -13l4 -3zM333 216v0h-5l-2 1l-16 17h7l10 -12l4 -4zM346 218v0l-6 -3h-2l-2 1h-2l-2 1l-5 5l-9 12l3 -1h4l4 -5l1 -2l9 -6l4 -1l1 -1h2zM352 219v0l-2 -1h-4l-4 1h-2l-5 3l-9 9l-1 2h9v-1l3 -2l10 -9l4 -2h1zM361 218v0h-8l-5 2l-14 12h8l11 -9l4 -2l2 -2zM371 218v0l-3 -2h-2l-9 4l-11 8l-3 3h-1v1l5 -1h4l2 -1l6 -5l3 -1l3 -3l4 -2zM377 218v0h-1l-1 -1h-1l-1 1h-3l-19 13h7l5 -4l4 -4l6 -4h2zM383 219v0l-2 -1h-5l-8 4l-5 4l-1 2l-4 3l1 -1h8l6 -6l7 -5h3zM389 221v0l-3 -2h-3l-4 1l-3 2l-9 8h6l2 -1v-1h1l1 -2l2 -2l5 -3h5zM394 222v0l-1 -1h-7l-6 2l-4 4v1l-1 1h8v-1l2 -1l3 -3l3 -1zM397 223v0v-1l-8 1l-2 2l-2 1l-2 2v1h1l1 -1h3v-1l3 -1l5 -3h1zM399 225v0v-2h-3l-6 3l-2 2h5l3 -2h1zM393 228v0h1l2 -1h5v-1l-1 -1h-2l-3 2h-1zM393 228v0h4l1 -1h3v1l-2 2h-1l-1 -1h-3zM320 257v0l-6 2h-5l-3 -1l-6 -3l-2 -2l-3 -1l-9 -9l-2 -1l1 -1l11 -1l3 4l9 9l7 4h5zM325 256v0l-4 1h-6l-1 -1l-4 -2l-5 -4l-9 -10h4l2 -1h3l2 1l9 9l3 2l2 2l3 2zM331 254v0l-3 2h-1l-2 -1h-1l-4 -2l-13 -13l-2 -1l8 -1l3 3l2 3l5 5l3 2l2 2zM343 249v0l-4 4l-2 1h-6l-7 -4l-11 -12h3l6 -1l2 4l3 3l2 1l2 2l5 1l1 1h6zM351 247v0l-4 2h-11l-1 -1l-6 -3l-6 -6l-1 -2h5l1 -1h4l8 7l5 3h2l2 1h2zM361 246v0l-1 1h-2l-2 1h-2l-2 -1h-2l-4 -1l-4 -2l-7 -5l-3 -3l9 -1v1l5 3l9 4l3 2h1zM371 244v0l-1 2h-1l-2 1h-2l-2 -1h-3l-3 -2l-5 -2l-11 -7l10 -1l5 2l7 5l4 1l2 1h1zM384 241v0l-2 1h-2l-1 1h-2l-2 -1h-2l-5 -2l-10 -7l8 -1l12 8h2l2 1h2zM379 243v0h-1l-2 1h-6l-3 -2l-11 -5l-5 -3l7 -1l11 7l5 2h2l1 1h2zM390 237v0l-6 4h-3l-1 -1h-2l-12 -8l9 -1v1l1 2l3 2l3 1h8zM398 232v0v1l-2 1h-5l-5 -1l-3 -2v-1h3l1 -1l1 1l8 3zM400 230v0v2h-2l-1 1l-2 -1l-5 -1v-1h-2v-1h-1l6 -1l5 2h2zM395 234v0l-2 2h-2l-1 1h-8l-1 -1l-3 -1l-2 -2v-1l-1 -1l8 -1v1l1 1l4 2h7zM146 268v0l-3 -4v-2l-2 -3v-7l2 -3h2l2 -1v1l-1 2v3l1 6v5l1 2h-1zM148 267v0l-2 -8v-10l2 -3v-1l3 -2h3v2l-1 1l-1 6v7l1 3v2l1 1l-4 1zM154 265v0l-1 -3l-1 -9l1 -2v-5l2 -4l4 -3h2l2 1l-2 2l-1 3v2l-1 1l-1 4v3l1 3v2l1 3l-4 1zM171 236v0h-3l-5 3l-2 3l-1 3v2l-1 2v2l-1 3v2l1 3v2l1 2l1 -1h2l2 -1h1l2 -20l1 -2v-1zM166 261v0h1l1 -1l4 -1v-14l1 -1v-5l2 -3v-1l2 -1h-3l-3 2l-3 4v2l-1 3v13zM185 231v0h-3l-7 4l-2 4l-1 7v13l6 -1v-1l-1 -2v-10l3 -7l3 -5zM195 228v0h-6l-2 1l-5 5l-2 5l-2 2v3l-1 3v8l1 3l6 -3v-5l2 -10l4 -7l2 -2l1 -2zM184 255v0h2l2 -1l7 -2v-10l1 -2l1 -7l2 -3l3 -3l-2 -1h-1l-2 1h-1l-2 1l-5 6l-5 14v7zM211 225v0h-6l-4 2l-2 2l-2 3l-1 7l-1 3v10l7 -1l1 -11l1 -3v-2l1 -1l1 -3l2 -3zM219 224v0h-5l-4 2l-3 3l-3 6l-1 7l-1 3v6l2 -1h1l1 -1h3l1 -10l2 -4l1 -5l5 -5zM227 223v0l-2 -1l-7 3l-3 3l-5 11v2l-1 2v6h1l5 -2l2 -8l2 -5l7 -11h1zM236 221v0h-5l-7 4l-4 7l-3 7l-2 8h2l1 -1h5l4 -14l5 -9l3 -2h1zM242 221v0h-6l-2 1l-5 5l-3 7v2l-2 4v2l-1 3l6 -1l1 -5v-3l2 -3l1 -3l3 -3l3 -4zM251 220v0h-5l-2 1h-2l-10 11l-2 5v2l-1 3v2h3l1 -1h3v-3l1 -1l1 -3v-2l1 -3l2 -3l7 -7zM262 219v0h-8l-7 3l-5 5l-6 13v3l2 -1h5v-2l1 -4l1 -1l4 -7l3 -3l3 -2l3 -3zM268 218v0l-7 1l-8 4l-1 2l-4 3l-5 11v3l1 -1h5l4 -9l3 -5l6 -6l4 -2zM279 217v0h-6l-11 4l-7 7l-6 13l3 -1h4l6 -11l3 -3l10 -7zM286 216v0h-2l-2 1h-2l-9 4l-10 9l-1 3l-2 2l-2 5l4 -1h3l3 -2l2 -3l16 -16zM296 216v0l-2 -1h-5l-2 1l-2 2l-2 1l-15 16l-3 2l-2 2h3l1 -1h4l4 -3l14 -15l3 -2l3 -1zM304 215v0h-3l-2 1h-3l-5 2l-11 11l-1 2l-4 4l-4 3l11 -2l2 -3l6 -6l1 -2l2 -2l9 -6zM148 273v0v11l1 4l1 2l4 3h2l2 -1l-2 -1l-2 -5l-3 -14h-1zM151 272v0l1 5l3 10l2 3l1 3h2l1 1l4 -2l-5 -5l-1 -3l-3 -5v-1l-1 -2l-1 -5h-1l-1 1h-1zM154 271v0l2 8l4 8l2 2l1 2l3 2h3l2 -1l1 -2l-5 -5l-3 -4v-1l-2 -3l-1 -3v-4l-1 -1l-3 1zM182 289v0l-4 2h-3l-7 -4l-3 -4l-3 -7v-2l-1 -3v-2l1 -1l6 -1l4 10v2l4 6l4 4h2zM189 287v0l-5 2h-2l-2 -1h-2l-1 -1l-5 -10l-4 -11h1l1 -1l3 -1v1l1 1v3l1 2v1l4 8l5 5l3 1zM199 285v0l-1 2l-2 1h-4l-2 -1h-2l-4 -3l-4 -4l-5 -7v-3l-1 -3v-3l7 -2v2l1 1v1l3 6l4 6l5 5l3 2h2zM181 262v0h2l8 -3l5 13l4 7l7 5h-1l-2 1h-6l-6 -3l-1 -2l-4 -4l-2 -3l-3 -7zM216 281v0l-6 2h-4l-4 -2l-1 -2l-2 -2l-8 -18l3 -1h4l1 1l3 8l6 8l4 4zM225 278v0l-6 2h-4l-4 -2l-4 -4l-4 -6l-5 -11l5 -1h3l1 3l8 14l3 3l3 1l1 1h3zM231 276v0l-5 2h-2l-8 -4l-1 -2l-5 -6l-3 -7l-1 -4h5l1 -1v2l7 11l6 6l5 3h1zM239 274v0l-5 2h-2l-8 -3l-4 -4l-1 -3l-3 -4l-4 -8l4 -1h3l2 4l4 5l5 8l6 4h3zM245 272v0l-5 2h-4l-4 -2l-2 -2l-6 -8l-4 -8v-1h1l1 -1h2l1 -1l1 4l5 8l4 4l6 4zM252 270v0l-2 1h-2l-2 1l-4 -1l-6 -3l-5 -5l-1 -2l-2 -2l-3 -8l7 -1l1 3l1 1l2 5l2 3l5 5l7 3h2zM262 268v0l-5 2h-7l-5 -2l-3 -3l-2 -1l-2 -2l-3 -5l-3 -7h1l1 -1h5l3 5v2l2 2l2 3l8 5l4 1zM268 267v0h-3l-2 1h-2l-3 -1h-2l-8 -4l-5 -5l-4 -10l6 -1l8 12l2 2l2 3h2l4 2zM279 266v0l-4 1h-9l-9 -4l-2 -2l-2 -1l-4 -6l-3 -7h2l1 -1h3l3 6l6 6l9 5l4 1zM285 265v0h-8l-2 -1h-3l-5 -2l-2 -2l-2 -1l-10 -10l-1 -3h2l1 -1h3l6 4l3 3l15 11zM295 262v0l-2 2l-4 2l-2 -1h-2l-7 -4l-17 -15l-3 -1l2 -1h7l13 12l4 2l1 1l6 3h4zM302 261v0l-3 1h-8l-7 -3l-10 -9l-8 -6h1l1 -1h7l13 10l4 4l7 4h3zM310 259v0l-2 2h-8l-3 -1l-3 -2l-2 -2l-17 -13h-2h2l1 -1h8l2 1l7 7l13 8zM141 288v0l-1 1l-1 3v7l1 2l-2 -1v-2l-1 -2v-5l2 -9l2 -3v-2l1 -1v5l-1 1v6zM120 259v0h1l11 7l2 2h1l4 2l-11 -9l-5 -2h-3zM130 287v0l3 -2l6 -6v-1h1l2 -3l-1 4l-2 3l-3 3h-1l-1 1zM140 295v0l1 -1l1 -13l2 -6v14l-1 4l-2 1zM133 298v0l-3 -5v-1l1 -1v-2l3 -5l6 -6v-1l1 -1l-1 7l-6 8l-1 3v4zM142 275v0v11l2 5l1 5l-2 -2l-4 -7v-4l3 -7v-1zM121 270v0h4l1 -1l9 1h4h-1l-4 -2h-2l-1 -1h-4l-1 1h-1l-1 1zM128 264v0h-4v-1h-1l-5 -2l-2 -3l1 2v1l1 2l4 3l5 2h2l1 1l8 1h-1l-8 -5zM125 252v0l-1 2v4l2 3l11 7l4 2l-4 -7l-10 -6l-1 -3zM142 269v0l-6 -10l-2 -7v-2l-2 5v2l1 2v2l2 2v1l2 2l4 2z" />
			<glyph glyph-name="asp" unicode="&#xe003;" horiz-adv-x="0" d="M221 191h-33l-8 25h-35l-8 -25h-33l42 116h32zM168 275q-2 6 -2 9v3h-7v-3l-2 -8l-13 -42h38zM259 189h-3q-15 -1 -32 6l-2 1v24l-3 2l9 5v-4q13 -9 26 -9q8 0 13 3q2 2 2 5t-2 7q-9 6 -19 10q-28 11 -28 35q-1 17 13 27q14 9 33 8q14 0 27 -4l2 -1v-30l-5 3q-10 7 -24 7q-7 0 -12 -3q-4 -2 -4 -5q0 -4 2 -6q9 -6 17 -9q13 -5 24 -15q6 -9 6 -21q2 -16 -12 -26q-10 -10 -28 -10zM343 191h-30v116h41q25 0 34.5 -11t9.5 -27q0 -8 -3.5 -16t-10.5 -13q-14 -12 -33 -11h-8v-38zM373 268q0 9 -5 15q-7 5 -19 5h-10v-3h-3v-39h13q24 0 24 22z" />
			<glyph glyph-name="audio" unicode="&#xe004;" d="M254 148q-1 0 -4 2l-3 2q-43 37 -65 55q-1 1 -3 1h-58q-7 0 -10 7v80q0 11 11 11h59q3 0 3 2l63 55q10 7 16 -1q2 -2 2 -6v-197q0 -8 -6 -9q-2 0 -3 -2h-2zM390 256q0 -9 -2 -13q-1 -25 -12 -50q-9 -23 -22 -37q-2 -4 -9 -6q-5 0 -9 4q-2 2 -2 5t2 5l5 8q21 30 25 63q8 63 -30 113q-6 7 0 12q3 5 7.5 5t8.5 -5q17 -21 24 -40q11 -25 12 -53v-10h2v-1zM352 259q0 -43 -23 -77q-2 -4 -9 -5q-5 0 -9.5 4t0.5 10v4q16 20 20 48q6 43 -20 81q-3 5 -3 9q2 6 7 8q7 2 11 -4l12 -20q13 -27 13 -49q1 -5 1 -9zM313 257q0 -27 -14 -48q-1 -3 -5 -4.5t-8 1t-5.5 6t2.5 8.5q7 11 9 27q5 25 -9 48q-3 4 -2 8t4 6t8 1.5t6 -4.5q6 -9 12 -27q2 -16 2 -22z" />
			<glyph glyph-name="babel" unicode="&#xe005;" horiz-adv-x="1323" d="M314 294v1h-1v-1h1zM321 277v-1l1 1v1zM293 255q0 1 -6 7q0 1 4 4l8 6q2 4 3 11v1q-1 5 -8 8q-4 3 -13.5 2.5t-24.5 -5.5q-3 -3 -8 -6h2q0 -1 -6 -5v-1h-2l1 -1l-4 -1l1 1q2 9 3 16l-3 3v2h-1q-4 -7 -17 -24q-10 -11 -10 -13l-4 -4q-1 -1 -1 -2v0q-2 -2 -6 -3l-2 -1v-1h1l-2 -1h-4l-2 -1h1h-2q-2 -1 -3 0v-1v1h-2q0 1 -7 9q0 2 5 5l10 8q3 5 4 14v2q-1 6 -10 10q-5 4 -19 4q-12 -1 -31 -8l-11 -7v-1l1 1l2 -1q0 -1 -8 -6v-1h-2v-2l-1 1q-2 -1 -5 -4v-1l3 2v-1l-1 -1l1 -1q3 3 6 5q1 0 2 -1v0q9 7 18 10v-1q-2 -2 -2 -3v-1l-7 -20q-19 -43 -31 -63v-1l4 1h3v-1q0 -1 -1 -3l-3 -6h1q5 5 8 10q14 4 22 9q7 0 11 4l-2 -1v1q5 1 7 2q11 9 17 12q11 9 15 17l9 1h-1h1v-1l-13 -20l-4 -9l2 1l-1 -2h1v-2q2 2 1 2h2v-2v1q2 2 11 14q10 15 15 20q-1 2 14 6h1q0 -2 -3 -11q-2 -6 -1 -6l-3 -8l-3 -12q-4 -9 -6 -19h2v1h2l1 2q0 2 1 2q1 6 2 6l1 6l3 8v-3q-3 -12 -6 -18l1 -2q7 13 19 54q0 4 3 5v1h-1l2 1q0 1 -2 1l4 17q1 1 2 1v-1h-1v-1q2 2 5 4q1 0 1 -1h1q7 5 13 7l-1 -2q-1 -1 -0.5 -1.5t-5.5 -14.5q-14 -33 -23 -48v-1l3 1h2v-1q0 -1 -1 -2l-2 -5h1q4 4 5 8l17 5q6 2 9 4v1l-2 -1q4 1 6 2q8 7 13 9q13 10 12 19v0zM291 255l1 -3l-1 -1l-1 4h1zM119 273h-1v1h2v-1h-1zM111 196q-1 1 -2 1v1q-1 1 0 1t1 -1l2 2h1q0 -4 -2 -4v0zM193 282l-2 4v0q1 1 2 -3v-1zM192 291v-1l-11 5q11 -1 11 -4v0zM145 250h-2v1h2v-1zM144 274v0v-1l-1 -1v1zM140 267l1 -2h-1v2zM139 264v0q0 -2 -1 -2v0q1 1 1 2v0zM137 260h1l-2 -2v1q2 0 1 1v0zM136 256v-1h-1v1h1zM123 220q0 -4 -1 -4v1q-1 1 1 3v0zM121 215v0q0 -1 -1 -1v0q0 1 1 1v0zM120 204l1 1v-1h-1zM154 215q-10 -5 -12 -7q-11 -4 -11 -5q-9 -3 -12 -5q-1 0 -1.5 1t1.5 3q1 0 3 -1q1 1 6 2v1h-2l6 3h2q-4 -1 -4 -2t1 -1l2 2q5 1 24 13v-1q0 -1 -3 -3v0zM134 208q3 1 4.5 2t1.5 0q-2 0 -6 -2v-1v1zM166 233l-10 -8q-11 -7 -12 -7q-18 -10 -22 -10v0q0 2 16 32q6 1 21 6l2 1q8 0 11 -3v-2q-3 -8 -6 -9v0zM147 244h1h-1zM169 248h2l1 -1v-1q-1 0 -3 2v0zM173 266q-2 -1 -9 -6q-2 0 -17 -7q-1 1 -2 1v0q0 2 2 6q1 6 2 7l9 18q0 2 5 3h1v-1l7 1q10 1 10 -4h1v2h1q3 -2 3 -3.5t-2 -4.5v1h-1v-2q-6 -7 -8 -8zM178 253q-1 1 -2 1v1h1l1 -1q1 -1 0 -1v0zM183 247q1 0 1 -1l-1 -1v2zM184 244v0v1v-1zM186 241q1 0 3 1zM189 240q-2 0 -3 -1v1l4 1v-1h-1zM192 241h-1h2h-1zM201 250v0h1h-1zM210 195v1v0q1 0 1 -1h-1zM216 247h-1q-1 0 -2 -1h-1l-1 1l6 1q-1 0 -1 -1v0zM219 248v1l4 1v-1q-3 0 -4 -1v0zM219 254v0h-2q0 1 7 2h1zM227 263q0 -6 -3 -6l-2 -1h-3v1l9 12h1q0 -2 -2 -6v0zM242 275h-1v1h2v-1h-1zM236 217h-2v1l1 1v-1l2 2v-1q0 -2 -1 -2v0zM298 282l-1 2l-1 1q1 0 2 -3v0zM297 288v0l-8 3q8 0 8 -3v0zM262 258h-2h2zM261 276v0v-1l-1 -1v1zM258 270v-1v1zM257 268v0v-2h-1q1 1 1 2v0zM256 265v0v-1h-1q1 0 1 1v0zM255 263v-2h-1v2h1zM245 235l-1 -3v0q0 2 1 3v0zM243 231v0v-1v1zM243 223h1v0q-1 0 -1 -1h-1q0 1 1 1v0zM269 231l-10 -5q-8 -3 -8 -4l-9 -4h-2q0 2 2 3l7 1v1l-2 -1q0 1 5 3h1l-3 -2h1l2 1q3 1 18 10v-1zM253 226q2 0 4 1h1q-1 0 -4 -2h-1v1zM278 245l-8 -6q-8 -6 -9 -6q-13 -7 -17 -8v0q0 2 12 25q5 0 16 5h2q6 1 8 -2v-1q-2 -6 -4 -7v0zM263 253h1h-1zM280 256h1q1 0 1 -1v0q-1 0 -2 1v0zM283 270q-2 -1 -7 -5q-2 0 -13 -5h-1l1 5q1 5 2 5l6 14q0 2 5 3v-1h5q8 1 8 -3l1 1v1q3 -1 3 -2.5t-2 -3.5v1h-1v-2q-4 -6 -5 -6zM285 260v1h2v-1h-2zM179 205h-1v0q0 -1 0.5 -1t0.5 1v0zM177 209v0v1v-1zM193 248h1l-1 1v-1zM400 230q-4 -1 -7 -1q2 0 -2 0v-1h1v1zM362 225h1h-1zM358 241v0q-1 -2 -1 -3v0q1 0 1 3v0zM401 231v-1h1zM354 225h-1l-1 -1l9 1h-7zM350 245v0h-1v-1q1 0 1 1v0zM406 235v0h1l-1 1q-2 0 -3 -1h-2q0 1 -1 1h-1q-2 0 -2 -1v1h-1l-1 -1h-1l-1 1v-1h1q0 -1 1 0h1q-2 -1 -6 -1h-1h2l1 1h-6q-34 -4 4 1l6 1h4q0 1 1 1v1l-6 -1l-7 -1l-6 -1q2 1 -3 0q-1 -1 -4 -1h-3l-2 -1v1q-2 -1 -3 -1h-13q1 3 2 3v0v0v0q1 0 1 1h-1v1l2 3v-1h1l-1 1l1 1h-1v1q3 6 3 7v-1q1 0 1 1h-1q0 1 1 2t1 2v0q2 1 2 4q2 4 6 15l4 13l2 5h-1v-1h-1q0 2 1 5h1v-2h1v2q0 1 -1 1v-1v3q-1 1 -1 2l-3 -1q0 1 -0.5 1.5t2.5 0.5h2v1h-3l-1 -1v1l-29 -2q0 -1 -1 -1v1l-3 -1h-4q-3 -1 7 0h-2q-1 -1 -1 0q-1 -1 -5 -1l-11 -2l-1 1l-9 -3l1 -1l1 1l2 -1l-1 -1q-2 -2 -2 -4q-4 -1 -4 -2h1l1 -1v-1q0 -1 -13 -27l-12 -28q-4 -1 -4 -2.5t2 -1.5v-3q0 -1 5 -2v1q1 -1 0 -5v0q3 3 2 4h1l1 -1q-1 0 -5 -11h1l6 14q7 0 23 2h2v1q0 -1 1 -1l8 1q3 0 3 2l4 1h5q0 2 1 2v1h-5q-1 0 -2 -1h-11q11 1 10 3h4l-1 1l-22 -1q-3 0 -5 -1h-11q0 2 7 17q2 5 4 6l5 1q4 0 9 2l10 1q4 0 9 2v1q-2 -1 -2 0t-3 1v1l7 1h-3v1h2v1h-3q-25 -1 -26 0l-1 -1v1q7 14 8 14l-1 -1v-1h1q2 7 4 7h3l1 1q2 1 7 1h1q7 2 18 3v1l-4 -1v1h2q1 1 2 0q2 1 3 1h3l1 1q-1 0 -2 1l5 1l2 1q0 -1 1 -1l1 1q0 -2 -1 -3h-1v1l-8 -20l-6 -17l-2 -5q-1 -1 0 -1q0 -2 -1 -5q-4 -10 -6 -12l1 -3q0 -1 -1 -1v0q0 2 -1 2v0q-2 -2 -2 -5v0q2 1 1 2h2v-3l-1 -1v-1q1 1 2 0.5t2 0.5h16l1 1v-1q2 1 5 0h-2v-1l2 1v-1h-5q0 -1 1 -1l5 1h5l4 1l8 1v1l-8 -1v1l13 1q3 0 10 2h1q0 -1 1 2h-6h2q2 0 3 1v0v0v0zM293 233h-1q0 1 2 5h1q0 -1 -2 -5v0zM295 238v0q-1 1 0 1v-1zM309 227v0h-2h2zM307 227l-2 -1h-3v1h5zM321 294h-1v0q0 1 1 1l1 -1h-1zM337 297h1v-1h-1v1zM333 295l-1 1v0q2 0 4 1v-1h-1q-1 -1 -2 -1v0zM335 290v0h3h-3zM338 292v0h2h-2zM339 296h-1v1h3q-1 0 -2 -1v0zM340 290v1h1q1 0 1 -1h-2zM348 301l-2 -1h-3q4 0 5 1v0zM346 293v0h-2h2zM350 291q0 1 -2 1l-2 -1h-2v1h9q-2 0 -3 -1v0zM373 298v-1q2 2 3 2q-1 -5 -4 -8l-1 1q2 4 2 6v0zM369 291v0q0 -2 -1 -2v1zM366 285q1 3 2 4v0q0 -4 -1 -4v-1l-1 -2v3zM365 281v-2v2zM347 228v0h1v-1q-1 0 -1 1v0zM373 227v0h-1v1h3q-1 0 -2 -1v0zM372 228v0v0v0zM372 232h-2h2l1 1h3v-1h-4zM379 233h-2h2zM379 233v0h1h-1zM381 233v0q0 1 0.5 1t0.5 -1h-1zM384 234v0h1h-1zM385 234h1h-1zM368 226v1v-1zM408 237v0v-1v1l-1 -1h1v1zM410 235v0h1h-1zM408 236v0v0v0zM320 279v-1h1v2zM313 296v1l-1 -1h1zM292 257q0 1 -6 7q0 1 4 3l8 7q2 3 3 11v1q-1 5 -8 8q-4 3 -13.5 2.5t-24.5 -5.5l-8 -6v-1l1 1v-1l1 1v-1l-6 -4v-1h-2l1 -1l-4 -1l1 1q2 9 2 16l-2 3v1h-1q-4 -7 -17 -23q-10 -12 -10 -13l-4 -4l-1 -2q-2 -3 -5 -4h-3v-1h1l-2 -1l-4 -1h-2h1h-2q-2 -1 -3 0v-1v1l-2 -1q0 2 -7 10q-1 1 5 4l10 9q3 4 4 14v2q-1 6 -10 10q-5 4 -20 4q-11 -1 -30 -8q-5 -4 -12 -7l1 -1h3q0 -1 -9 -7h1h-1l-1 -1l1 -1h-2q-2 0 -5 -3v-1l3 2v-1l-1 -1l1 -1q3 3 6 5q1 0 1 -1h1q9 7 18 9l-2 -3v-1q1 -2 -8 -20q-18 -43 -30 -63v-1q4 0 4 1h1v-1l1 1h1l-1 -5q-1 -1 -3 -5v-1h1q5 6 8 11q14 4 22 8q7 1 11 4v1l-2 -1q5 1 7 3l17 12q11 8 15 17l9 1h-1h1l1 -1l-16 -24l-2 -5l2 1l-1 -2v-1h1v-1q2 1 2 2h1q-1 0 -1 -2h1q3 3 11 15q10 15 15 20q-1 2 14 6h1q0 -3 -3 -12q-2 -5 -2 -6l-5 -19q-4 -9 -6 -19h2v1h2l1 2q0 2 1 2l1 6q2 6 3 6q1 8 2 8l1 -1l-1 -2q-3 -12 -6 -18l1 -3q6 14 19 55q0 3 3 5l-1 1q2 0 2 1l-2 1l4 17l1 1l1 -1h-1v-1q2 2 5 4l1 -1h1q6 5 13 7v0q-1 -2 -2 -2l1 -1q0 -1 -6 -15q-14 -33 -23 -48v-1q2 0 3 1v-1h1v1q0 -1 1 -1v0q0 -1 -1 -2.5t-2 -4.5v-1h1q4 5 5 9l17 5q6 2 9 4h-2q4 1 6 2q9 7 13 9q13 10 12 19v0zM290 256l1 -2l-1 -1v4v-1zM118 275h-1v1h2v-1h-1zM110 198q-1 1 -2 1l-1 1h1l1 -1l2 3h1q0 -4 -2 -4v0zM192 284q-1 0 -2 4v0q1 0 2 -3v-1zM191 292v0l-11 4q11 0 11 -4v0zM144 252h-2l2 1v-1zM143 276v0v-1l-1 -2v1zM139 269v-2v2zM138 266v0q0 -2 -1 -2v0q1 1 1 2v0zM136 262h1l-1 -2h-1v1q1 0 1 1v0zM135 258v-2h-1v2h1zM122 222l-1 -4v0q-1 2 1 4v0zM120 217v0q0 -1 -1 -1v0q0 1 1 1v0zM119 206h1h-1q-1 0 0 0v0zM153 217q-10 -5 -12 -7q-11 -4 -11 -5q-9 -3 -12 -5h-2q0 2 1.5 3t3.5 1t6 1v1h-3q1 0 7 3h2q-3 -1 -3.5 -2t0.5 -1l2 2q5 1 24 12v0q0 -1 -3 -3v0zM133 210q3 0 4.5 1.5t1.5 0.5q-2 0 -6 -3v1zM165 235l-10 -8q-11 -7 -12 -7q-18 -10 -22 -11h-1l16 33q7 1 22 6l2 1q7 0 11 -3v-2q-2 -8 -6 -9v0zM146 246h1h-1zM168 250h1l2 -1v-1q-1 0 -3 2v0zM172 268q-2 -2 -9 -6q-2 0 -17 -7q-1 1 -2 0v1q0 2 2 6q1 6 2 7l9 18q0 2 5 3h1v-1l7 1q10 1 10 -4h1v2h1q3 -2 3 -3.5t-2 -4.5v1h-1l-1 -2q-4 -8 -7 -8zM177 255q-1 1 -2 1v1h1l1 -1v-1zM182 249q1 0 1 -1l-1 -1v2zM183 246h-1h2h-1zM185 243q2 0 3 1zM188 242q-2 -1 -3 -1l4 2v-1h-1zM191 242v1h1zM200 252v0h1h-1zM209 197v1l1 -1h-1zM215 249h-1q-2 0 -2 -1h-1q-1 0 -1 1l4 1h2zM218 250v0l1 1l3 1v-1q-3 0 -4 -1v0zM219 256h-1h-2l8 2zM226 265q0 -6 -3 -6l-2 -1h-3v1l9 12h1q0 -2 -2 -6v0zM241 277h-1h1zM235 218q-1 1 -2 1v1l3 1q0 -2 -1 -3v0zM297 284l-2 2v1q1 0 2 -3v0zM296 290v0l-8 3q8 0 8 -3v0zM261 259h-2v1h2v-1zM260 278v0v-1q-1 0 -1 -1v0q1 1 1 2v0zM257 272v-1v1zM256 270v0v-2h-1q1 1 1 2v0zM255 267v0v-1h-1q1 0 1 1v0zM254 264v-1h-1v1h1zM244 237q0 -3 -1 -3v0q0 1 1 3v0zM242 233v-1v1zM242 225h1v-1h-2q0 1 1 1v0zM267 233q-7 -4 -9 -6q-8 -2 -8 -3l-9 -4h-2q0 2 2 3l7 1h-2q0 1 5 3h1l-3 -2q0 -1 1 -1l2 2q3 0 18 9v0q0 -1 -3 -2v0zM252 228q2 0 4 1h1q-2 0 -5 -2v1zM277 247l-8 -6q-8 -6 -9 -6q-14 -8 -17 -8v0q0 2 12 25q5 0 16 5h2q6 0 8 -2v-2q-2 -5 -4 -6v0zM262 255h1h-1zM279 258h1l1 -1q-1 -1 -2 1v0zM282 272q-2 -2 -7 -5q-2 0 -13 -5h-1l1 5q1 4 2 5l6 14q0 2 4 2h6q8 1 8 -3h1v2q3 -2 3 -3t-2 -3v1h-1v-2q-4 -6 -6 -6zM284 262v1h2v-1h-2zM178 207h-1v-1h1v1zM176 211v0v1v-1zM192 242v0v0v0v0zM192 250v0v0v0v0zM353 227h-2v-1l10 1h-8zM361 227v0h1h-1zM400 232v0h1h-1zM399 232q-5 -1 -7 -1q1 0 -2 0v-1h1h-1l1 1h7q1 0 1 1v0zM357 242v0q-1 -1 -1 -2v0q1 0 1 2v0zM349 247v0h-1v-1q1 0 1 1v0zM367 228v1v-1zM405 237v0v1q-2 0 -3 -1h-2q0 1 -1 1h-1q-1 0 -2 -1v1l-1 -1h-3h1q0 -1 1 -1l1 1q-2 -1 -6 -2l-1 1h-1h3l1 1h-7q-26 -3 5 1h6q1 1 3 1h1q0 1 1 1v1l-7 -2l-13 -1q3 1 -2 0q-1 -1 -4 -1h-3l-2 -1v1q-2 -1 -3 -1l-8 -1l-1 1q0 -1 -1 -1l-2 1q0 3 1 3v-1l1 1v1h-1q0 1 1 1l1 3v-1h1v1h-1l1 1l-1 1l3 6h1v1h-1q0 1 1 2t1 2v0q1 1 2.5 4t5.5 15l5 13l1 5h-1v-1h-1q0 2 1 5l1 -2h1v2h-1v3l-1 1h-3q0 1 -0.5 1.5t1.5 0.5h3v1h-3l-1 -1v1l-26 -3l-3 1q0 -1 -1 -1h-7q-3 -1 7 0q-1 0 -1.5 -0.5t-1.5 -0.5h-5l-11 -2h-4l-6 -2l1 -1h3l-1 -1q-2 -2 -3 -4q-3 -1 -3 -2v-1l1 1l1 -1v-1q0 -1 -13 -27l-12 -28q-4 -1 -4 -2.5t2 -1.5v-1l-1 -1l1 -1q0 -1 5 -2v1v-5q2 3 2 4h1l1 -1q-1 0 -5 -11l1 -1q5 13 6 14l34 4q3 0 3 2l4 1h5q0 2 1 2v1q-1 0 -2 -1l-4 1q0 -1 -1 -1h-11q11 1 11 3v-1l2 1v1l-20 -1q-1 0 -1 -1l-1 1q-3 -1 -5 -1h-5l-4 -1l-2 1q0 2 7 17q2 5 4 6l5 1q4 0 9 2l10 1q4 0 9 2v0q-2 0 -2 1t-2 1h-1l2 1h5v1h-3v1h1q1 0 1 1h-3q-26 -1 -26 0l-1 -1v1q7 14 8 14l-1 -2h1q3 6 5 7h2l1 1q2 1 7 1l19 3h-4v1h4q2 0 3 1h3l1 1l-2 1q-1 0 0 0l5 1h4q-1 -1 -1 -2h-1v1l-8 -20l-6 -17l-2 -5q-1 -1 0 -1q0 -3 -2 -5q-3 -11 -4 -12v-4h-1q0 1 -1 1h-1q-1 -1 -1 -4v0q2 1 1 2h2v-3l-1 -2h12l2 1h6l1 1v-1q2 1 5 0h-2v-1q1 0 1.5 0.5t0.5 -0.5h-3l-1 -1l-1 1v-1h6l2 1q0 -1 1 0h2l10 2h2v1h-2l-1 -1h-5v1h12l12 3q0 -1 1 2h-3l-3 -1v1h2q2 0 3 1v0v0zM292 235h-1l2 5h1q0 -2 -2 -5v0zM294 240v0v1v-1zM308 229v0l-2 -1v1h2zM306 229q0 -1 -2 -1h-3v1h5zM320 295h-1v1h1v1l1 -1q0 -1 -1 -1v0zM336 299h1v-1h-1v1zM332 297h-1v1h5h-1q-1 -1 -1 0q-1 -1 -2 -1v0zM334 291v1h3v-1h-3zM337 294v0h1h-1zM337 298v0v1h3q-1 -1 -3 -1v0zM339 292v0l1 1q1 0 1 -1h-2zM347 302h-2h-3h5zM345 295v0h-2h2zM349 293q0 1 -2 1l-2 -1h-2v1h8q-1 0 -2 -1v0zM372 299v0l3 2q-1 -5 -4 -8l-1 1q2 4 2 5v0zM368 293v0q0 -2 -1 -2v1zM365 287q1 3 2 4v-1q0 -3 -1 -3v-2l-1 -1v3zM365 283l-1 -2l-1 1q1 1 2 1v0zM346 230v0h1v-1q-1 0 -1 1v0zM372 229v0h-1v1h3q-1 -1 -2 -1v0zM371 230v0v0zM371 234h-2h2l4 1v-1h-4zM378 234l-2 1h2v-1zM378 235v0h1h-1zM380 235v0l1 1v-1h-1zM383 235v1h1v-1h-1zM384 235q0 1 1 1l1 -1h-2zM407 238v0v0v0v0zM407 238v1v-1h-1h1zM409 237v0h1h-1z" />
			<glyph glyph-name="bat" unicode="&#xe006;" d="M207 210h17v12q11 -14 28.5 -14t28 12.5t10.5 31t-10.5 31t-28 12.5t-28.5 -14v42h-17v-112v-1zM224 252q0 12 7 19.5t18 7.5t17 -7.5t6 -19.5t-6 -20t-17 -8t-18 8t-7 20v0zM207 175h84v16h-84v-16zM126 386h246h14v-274h-274v274h14z" />
			<glyph glyph-name="bower" unicode="&#xe007;" d="M390 259q-1 1 -6 3t-9 3q-17 5 -41 9l-42 7l-15 1q1 6 4 8.5t11 4.5l3 -7q0 -1 1 -2t2 1h11q28 4 38 31l5 17q3 21 15 33l3 3q-17 6 -40 -5q-24 -12 -35 -35l-11 4q-2 0 -2 3q-10 25 -35 40q-17 12 -42 9q-48 -8 -78.5 -45t-28 -85.5t30.5 -91.5q4 -5 12 -13l13 -12q9 -6 18 -5t15 8l5 5l2 -3l8 -20q2 -4 8.5 -6.5t12.5 -0.5q2 2 4 0q10 -5 19 0l4 3q2 2 4 2.5t4 -0.5h5q15 2 15 15l1 1q0 1 1 1q6 3 6 7q2 7 0 16l-7 12q-5 9 -9 13l-1 2l15 -5q15 -2 22 5l3 -2q9 -5 20.5 -3.5t17.5 10.5h3q14 -3 25 6q6 6 6 10v2q12 1 17.5 6t5.5 17q-3 18 -14 23v0zM322 300q-8 -4 -20 -4h-1q-1 1 -1 2l-3 9q0 1 1 1q4 0 5 -1t1 -5v0q2 3 3 3.5t5 -0.5l10 -3l1 -2q1 0 -1 0v0zM302 333q7 11 24 25q13 7 24 7q-3 -3 -5 -6.5t-4 -10.5q-2 -15 -1 -10q-3 -16 -6 -23q0 -2 -2 -4t-2 -3q-3 3 -15 12v3l10 17q6 9 13 15v0q-10 -5 -17 -14q-5 -4 -12 -18l-7 5v5zM262 307v0q0 13 5 21q0 1 2 2h1q23 -3 40 -15l8 -7l-11 3q-13 3 -24 -1q-8 -6 -21 -3v0q5 -6 15 -4q3 0 12 4v0q0 -1 -1 -3l-1 -1q-4 -3 -23 -10h-1q-1 5 -1 14v0zM215 343q10 0 19 -8t9 -19.5t-8.5 -19.5t-19.5 -8t-19.5 8t-8.5 20t8.5 19.5t19.5 7.5v0zM286 250q12 -3 21 -3l28 -5q3 0 3.5 -1t-2 -4t-7.5 -5t-9 -1h-3q1 -2 0 -5t-3 -4q-7 -6 -16 -6l-11 2q-1 -7 -11 -9t-18 4q4 -10 5 -15v-5q-2 -17 -14.5 -28.5t-30.5 -13.5q-33 -2 -61 19q-25 15 -37 43l-1 3l16 -5q20 -3 32 7h3q18 -5 35 -3q21 4 41 26q4 4 11 17q3 4 9 10h3l38 -5l52 -9q1 0 1 -1q-89 -6 -37 -3q-21 -1 -37 0v0zM215 300q8 0 12.5 4.5t4.5 11t-4.5 11t-12 4.5t-12.5 -5t-5 -10.5t4.5 -10.5t12.5 -5zM206 328q0 1 3 2l5 1l8 -3q4 -3 0 -8q-3 -1 -8 -1t-9 1q-3 6 1 8v0z" />
			<glyph glyph-name="c" unicode="&#xe008;" d="M262 129q-28 0 -41 5q-20 7 -37.5 22t-30.5 38q-9 22 -11 34q-3 22 -1 35q2 45 21 71q16 25 43 39q13 8 42 15q23 0 34 -2q23 -3 40 -11q26 -14 41 -39q11 -20 16 -45q0 -4 -2 -4q-12 1 -31 1l-32 -1q-3 0 -3 4q-5 22 -23 30q-27 10 -48 -6q-14 -10 -19 -36q-6 -31 3 -55q5 -13 12 -21t19 -12q20 -8 37 3q11 7 14 21q3 6 3 11q0 1 1.5 2t2.5 0l38 -4q13 0 20 -1q4 0 5 -1t1 -6q0 -36 -26 -59q-22 -22 -59 -28h-29z" />
			<glyph glyph-name="cake_php" unicode="&#xe009;" d="M249 114q-25 3 -50 7q-35 6 -57 29q-13 14 -11 31q30 -25 73 -33q30 -7 81 -6v-25l-15 -5q-7 2 -21 2zM245 336q22 -41 45 -82q-45 -3 -77 0q-39 5 -71 20q-18 11 -27 21.5t-8.5 23.5t10.5 23q17 19 46 28q101 31 187 -5q13 -6 34 -27q11 -11 5 -30q-2 -9 -11 -7l-128 35h-5zM292 242q0 -7 -1 -19l-1 -15q0 -3 -2.5 -5l-2.5 -2q-51 2 -71 5q-38 5 -66 18q-34 18 -35 47q0 4 -3 16q22 -23 53 -34q24 -10 60 -11q14 -1 35 0h34zM289 190q-2 -19 -4 -35q-46 -7 -88 5q-28 10 -51 22t-23 45q21 -18 51 -27q23 -7 56 -9zM376 250q-10 3 -43 14q-25 9 -41 14q-3 2 -5 7l-20 33q9 -3 23 -5q57 -18 86 -24q7 -3 5 -9zM303 264q23 -10 72 -27q-4 -23 -7 -33q-23 9 -62 26zM363 156l-23 12l-21 10q-11 4 -14 6.5t-3 6.5l2 27l59 -25q3 -3 2 -5q0 -7 -2 -32z" />
			<glyph glyph-name="clock" unicode="&#xe00a;" d="M242 387h17l23 -3q27 -7 50 -23q18 -14 29 -30q19 -27 24 -62l2 -10v-20l-2 -8q-1 -6 -1 -9q-7 -29 -22.5 -50.5t-41.5 -38.5q-30 -16 -54 -18l-9 -2h-20l-8 2q-6 0 -8 1q-30 7 -51.5 22t-38.5 42q-16 30 -18 54q1 0 1 2l-1 6v17l3 23q7 27 23 50q14 20 41 36q24 15 50 17zM136 247q1 -30 17 -56t41.5 -41t56.5 -15t58 16t42 43t14 58t-17 56.5t-42.5 40.5t-57.5 14.5t-57 -16.5t-41 -42t-14 -58zM256 250q6 3 10 7q28 19 40 28l2 1q1 1 1 2q3 2 5.5 1.5t5 -3t2 -5.5t-3.5 -5l-15 -10q8 5 -17 -13q-10 -6 -17 -12l-16 -12q-3 -3 -7 -1t-4 6v98q0 8 7 8q1 1 4 -1t3 -6v-83v0v0z" />
			<glyph glyph-name="clojure" unicode="&#xe00b;" horiz-adv-x="0" d="M247 248q-4 -6 -6 -10q-10 -25 -13 -37q-1 -5 -1 -12v-6q12 -4 24 -4t23 4q-2 2 -5 4q-6 9 -13 24q-3 10 -9 37zM252 385q-34 0 -63 -15t-48 -40q18 10 38 10t34 -8l4 -2q16 6 35 6q23 0 42.5 -11.5t31 -31.5t11.5 -43q0 -17 -6.5 -33t-18.5 -28q6 -1 12 -1q28 0 44 14q14 11 18 31q1 9 1 17q0 37 -18 68.5t-49 49t-68 17.5zM289 195q1 -1 5 -3q13 10 21 25.5t8 32.5q0 20 -9.5 36t-26 26t-35.5 10q-12 0 -23 -3q10 -11 18 -30q4 -14 11 -37q-2 0 1 -4l4 -12q8 -19 14 -30q7 -10 12 -11zM314 168q-15 2 -24 6q-18 -9 -38 -9q-24 0 -43.5 11.5t-31 31t-11.5 42.5q0 20 7.5 36.5t21.5 27.5q-7 4 -15 4q-21 -2 -36 -13q-19 -14 -27 -41q-1 -3 -1 -14q0 -37 18 -67.5t49 -49t69 -18.5q33 0 62.5 15.5t48.5 42.5q-20 -6 -38 -6q-5 0 -11 1zM211 309q-15 -10 -23 -25.5t-8 -33t8 -33t21 -25.5q3 8 8 19q2 7 10 21l14 29l-2 9q-10 22 -18 31q-4 4 -10 8z" />
			<glyph glyph-name="coffee" unicode="&#xe00c;" d="M263 359q-4 -1 -11 -5q40 19 -24 -10q-9 -5 -19.5 -6t-13.5 2q-8 10 15 10q17 0 10.5 4.5t-19 2t-16.5 -7.5q-1 -4 -1 -6t3 -6q6 -5 12 -7.5t19 -0.5q9 0 15.5 1.5t14.5 6.5q14 7 28 10.5t23 2.5t11.5 -4.5t-3.5 -7t-15 -4t-13.5 3t-9 3t-4.5 -5.5t14.5 -8.5t28.5 0.5q12 2 16 8.5t0 13t-16 10.5l-21 2q-15 0 -24 -2v0zM133 339q-3 -2 -5.5 -4.5t-2.5 -4.5q-1 -5 7.5 -11t22.5 -10q22 -7 48 -10q14 -1 56 -1t54 1l10 1q7 1 8 2q10 1 26 6t21 8q6 3 9.5 8.5t1 9t-6 7t-5.5 3t-1 -4.5q3 -9 -20.5 -17.5t-57.5 -9.5q-13 -1 -42 -1t-35 1l-22 1q-19 1 -37.5 7.5t-18.5 12.5v7q3 8 -10 -1v0zM128 297q0 -4 2 -10l3 -13l5 -12l-7 -5q-8 -8 -11 -13q-5 -8 -6 -12.5t-1 -14.5q0 -14 4 -21t14 -16q6 -4 9.5 -4.5t14.5 -0.5q13 0 17 2t-7 3q-8 2 -17.5 10.5t-13 17t-3 19t4.5 17.5l5 6l26 -40q15 -21 18 -33q7 -18 22.5 -25t50 -7t50.5 7.5t23 26.5q2 8 19 31q18 25 21 35q6 13 12.5 33t6.5 26v3l-5 -3q-5 -7 -24 -11.5t-43 -7.5q-21 -2 -71 -1t-66 5l-13 1q-6 1 -20 6.5t-18 9t-2 -8.5v0z" />
			<glyph glyph-name="coldfusion" unicode="&#xe00d;" d="M188 273h1h-8q-5 1 -8 0q-20 -3 -27 -5q-15 -4 -22 -15q-26 -33 -9 -68q17 -34 58 -36h47q44 1 71 38q14 17 21 39q3 7 7 10t11 3l14 -1l13 1q4 0 6.5 0.5t2.5 3.5l1 14q0 8 -3 13q-1 4 -3.5 4h-7.5h-12q-5 0 -6.5 1.5t0.5 6.5q12 27 36 35q2 1 7 2l7 1q3 1 4.5 4.5t1.5 9.5q0 -4 0 10v11q0 6 -6 6q-20 -2 -33 -7q-16 -7 -26 -19q-18 -24 -35 -66q-9 -26 -12 -32q-8 -19 -18 -30q-11 -14 -27 -16q-33 -6 -68 2q-8 1 -12.5 7t-4.5 14q0 18 20 23q6 2 17 2h19q4 0 6 2.5t2 7.5q0 17 0 14q0 6 -0.5 8t-3 2.5t-7.5 0.5h-12q1 -1 -2 -1z" />
			<glyph glyph-name="config" unicode="&#xe00e;" d="M382 229q-4 1 -10 4l-8 3l-1 30l1 3l18 7q8 5 5 16l-13 31q-3 4 -7 6t-9 -1l-16 -7q-4 0 -4.5 2.5t-4.5 4.5q-5 6 -5 5l-11 10l8 18q4 12 -8 17q-5 1 -14 3q-26 9 -15 6q-11 5 -17 -8l-3 -9l-3 -8l-30 -1l-4 1l-7 17q-4 9 -16 6l-30 -13q-5 -3 -6.5 -7t0.5 -9l7 -16q0 -4 -1 -4l-5 -4l-2 -4l-13 -13l-9 3l-8 3q-11 5 -17 -8l-10 -27q-2 -7 -0.5 -10.5t7.5 -6.5l10 -3l7 -3l2 -30l-2 -4l-17 -7q-8 -4 -5 -16l13 -30q3 -5 7 -6.5t8 0.5l17 7q3 0 3 -1q2 -3 6 -6q5 -5 5 -4l11 -10l-8 -18q-5 -12 8 -17l14 -5q8 -4 15 -6t10.5 -0.5t5.5 8.5q1 3 4 9l3 8l30 1l3 -1l7 -17q5 -9 16 -6l31 14q4 2 6 6t-1 9l-7 17q0 3 2 3q3 2 5 5q6 5 5 5l10 11q3 -1 8 -3l9 -3q11 -5 16 8l5 14q4 8 6 15q5 12 -7 16v0zM275 197q-22 -9 -44 -0.5t-31.5 30t-1 43t30 31t43 1.5t31 -29.5t1.5 -43.5t-29 -32z" />
			<glyph glyph-name="cpp" unicode="&#xe00f;" d="M119 253q0 30 9 54t25 39t38 26q18 7 45 7q24 0 43 -9.5t31 -22.5l-34 -38q-14 10 -8 6q-5 3 -9 4q8 -2 -10 3q-7 2 -13 2q-10 0 -20.5 -5t-16.5 -13.5t-11 -22t-5 -30.5q0 -36 16 -51q16 -19 40 -19q13 0 23 5t17 14l34 -39q-14 -17 -33.5 -26.5t-42 -9.5t-46.5 8q-21 7 -37 23q-8 8 -14 19q-4 7 -10 24q-11 21 -11 52zM279 298h-22v-27h-25v-22h25v-28h22v28h25v22h-25v27zM359 271v27h-22v-27h-25v-22h25v-28h22v28h25v22h-25z" />
			<glyph glyph-name="csharp" unicode="&#xe010;" d="M127 249q0 30 9 53.5t25 39t38 25.5q18 8 46 8q23 0 42 -9.5t32 -22.5l-34 -39q-15 11 -9 7q-5 3 -9 4q8 -2 -10 3q-6 2 -12 2q-11 0 -21 -5t-16.5 -14t-11.5 -22.5t-5 -29.5q0 -37 16 -52q16 -19 41 -19q12 0 22.5 5t17.5 14l34 -39q-15 -17 -34.5 -26.5t-42 -9.5t-46.5 8q-20 7 -37 23q-8 8 -14 20q-3 6 -10 23q-11 21 -11 53zM339 230h-13l-4 -31h-16l5 31h-16v15h19l3 20h-17v14h19l5 31h15l-5 -31h13l5 31h15l-5 -31h18v-14h-20l-3 -20h17v-15h-20l-5 -31h-16zM329 245h13l4 20h-13z" />
			<glyph glyph-name="css" unicode="&#xe011;" d="M158 131l13 64h-40v34h48l8 40h-42v34h50l13 63h46l-13 -63h45l13 63h45l-13 -63h41v-34h-47l-10 -40h42v-34h-48l-13 -64h-46l13 64h-45l-13 -64h-47zM270 229l8 40h-45l-8 -40h45z" />
			<glyph glyph-name="csv" unicode="&#xe012;" d="M266 286h78v-20h-78v20zM266 331h78v-19h-78v19zM266 194h78v-19h-78v19zM266 240h78v-20h-78v20zM160 286h77v-20h-77v20zM160 331h77v-19h-77v19zM160 194h77v-19h-77v19zM160 240h77v-20h-77v20zM115 117h275v271h-275v-271z" />
			<glyph glyph-name="default" unicode="&#xe013;" d="M130 373h227v-33h-227v33zM130 300h193v-33h-193v33zM130 224h239v-32h-239v32zM130 151h140v-32h-140v32z" />
			<glyph glyph-name="deprecationcop" unicode="&#xe014;" d="M404 297v-5l-3 -5l-17 -19q-9 -10 -9 -19q0 -1 -1 -2l-3 -2q-50 -12 -101 -14q-49 0 -73 5l-52 9q-1 0 -2 1l-1 1q0 13 -11 21l-15 13q-6 7 -3.5 14.5t11.5 11.5l36 14q12 6 29 17l29 17q20 16 39 20h5q15 -4 37 -16q14 -7 27 -18l31 -17q18 -9 32 -14q13 -2 15 -13zM260 317q-15 0 -27 -13l-1 -1q-1 -2 -1 -3q2 -19 14 -34q2 -3 9 -6q11 -4 19 6q12 15 14 34q0 2 -1 4q-13 13 -26 13zM255 142q-11 2 -22 3q-35 7 -63 37q-16 19 -25 36l-1 3v2q115 -29 231 0v-3q-25 -49 -67 -67q-19 -9 -42 -9h-3q-3 -2 -8 -2z" />
			<glyph glyph-name="docker" unicode="&#xe015;" d="M223 362h30v-30h-30v30zM223 327h30v-30h-30v30zM223 291h30v-30h-30v30zM189 327h30v-30h-30v30zM189 291h30v-30h-30v30zM153 327h30v-30h-30v30zM153 291h30v-30h-30v30zM118 291h30v-30h-30v30zM260 291h30v-30h-30v30zM414 286q-12 3 -20 3q-11 -2 -15 9.5t-14 17.5q-6 9 -12.5 7.5t-9.5 -10.5q-5 -15 -2 -34q3 -10 0.5 -14t-12.5 -6t-129 -2h-116q-5 0 -5 -15q0 -9 2 -20q1 -14 5 -21q11 -26 30 -41q21 -17 48 -19h67q59 2 109 54q20 22 30 45q4 8 13 10q19 3 27 9q2 3 6 8q8 5 7 11.5t-9 7.5zM189 210q5 0 8.5 -3.5t3.5 -8.5q0 -12 -12 -12q-5 0 -8.5 3t-3.5 8.5t3.5 9t8.5 3.5zM115 176q5 1 18 0q11 0 17 2q11 4 18.5 1t13.5 -13q2 -5 10 -11l15 -8q-25 -4 -50 4.5t-42 24.5z" />
			<glyph glyph-name="editorconfig" unicode="&#xe016;" d="M287 208q3 -1 15 -4q0 -7 -7 -16l-13 -19q-7 -8 -25 -19q-12 -7 -37 -18q-8 -3 -10 -5q-11 -7 -21 -8l-22 -4q-14 -2 -22 -1q-19 0 -30 4q-4 1 -7 8q-2 3 -2 8q5 -5 7 -5q8 -9 19 -5h3q6 0 7 5q0 2 -3 7q0 2 -2 2l-16 5q-9 3 -15 0l12 49l8 28q1 1 2 1h3l7 -2q5 -3 8 -3q18 -2 27 -1t18 8q1 3 4.5 3t7.5 -4v-2q0 -21 17 -33q6 -5 15 -5h22q11 0 23 8q2 2 3 5q4 11 4 13zM304 210q-7 1 -15 1q-3 4 -7 5q-9 6 -34 12q-13 2 -36 2l-5 -1q-1 -2 -2.5 -0.5t-6.5 1.5q-2 0 -1.5 3.5t-0.5 6t-4 3.5l-34 17l-13 3l5 11q-4 -7 5 9l4 6l5 5q6 10 15 13q2 3 6 3q18 2 35 0q19 -4 26 -6l20 -7l15 -8q6 -6 6 -9q4 -13 7 -23q0 -4 3 -11l2 -9q1 -6 3 -14q2 -15 2 -13zM246 375q0 6 -4 8.5t-15 4.5q-2 2 -11 2v0q-2 0 -3 -2q-9 -2 -24 -15q-4 -1 -5 -5l-12 -24q-5 -8 -5 -18l5 2q10 2 13 2q25 0 36 -1h4q2 0 4 3l5 5q16 18 12 38zM236 383l-3 1zM396 260v0q0 5 -5 9q-4 8 -12 12h-1q-6 2 -10 2h-11q-15 0 -28 -8q-2 -1 -7 -5.5t-8 -5.5l3 -18q3 -12 3 -20v-22h1q13 -5 26 0q13 6 32 22q14 12 17 25v9z" />
			<glyph glyph-name="ejs" unicode="&#xe017;" d="M121 276l103 95v-45l-77 -68l77 -67v-46l-103 96v35zM396 239l-104 -95v45l79 68v1l-79 68v47l104 -95v-39z" />
			<glyph glyph-name="elm" unicode="&#xe018;" d="M248 243l-124 -124h248zM325 181l54 -55v110zM241 250l-124 124v-248zM379 265v116h-116zM317 312l62 -62l-62 -62l-62 62zM124 381l57 -57h124l-57 57h-124zM248 257l57 57h-114z" />
			<glyph glyph-name="eslint" unicode="&#xe019;" horiz-adv-x="503" d="M220 111l-107 96l30 139l136 44l106 -95l-30 -140zM168 224l64 -56l81 26l17 83l-63 57l-81 -26zM306 152h-114l-57 99l57 99h114l57 -99zM212 187h74l37 64l-37 64h-74l-37 -64z" />
			<glyph glyph-name="favicon" unicode="&#xe01a;" d="M256 391l45 -91l100 -15l-73 -69l18 -100l-90 47l-90 -47l18 100l-72 69l99 15z" />
			<glyph glyph-name="flow" unicode="&#xe01b;" horiz-adv-x="0" d="M326 113v74h-74zM334 155v80h-79zM285 187v-80h80zM317 230v64h-62zM347 245v80h-80zM211 394v-80h80zM230 268v81h-96l80 -81h16zM230 108v97h-96zM230 188v80h-79zM255 294v-81h79zM230 284v81h-79zM252 187v-80h79z" />
			<glyph glyph-name="folder" unicode="&#xe01c;" d="M380 379h-113l-26 -52h-144v-206h309v258h-26zM380 327h-99l12 26h87v-26z" />
			<glyph glyph-name="folder_open" unicode="&#xe01d;" d="M385 359h-100l-23 -45h-126v-181h271v226h-22zM385 158h-224v133h224v-133zM385 314h-89l12 23h77v-23zM366 271h-271l41 -138h271z" />
			<glyph glyph-name="font" unicode="&#xe01e;" d="M341 221h-54l-6 -14q-3 -10 -3 -12q0 -7 5 -9q1 -1 4 -2l10 -2v-4h-50v4q10 4 13 7q6 6 13 23l53 119h2l53 -123q7 -17 13.5 -21.5t10.5 -4.5v-4h-72v4h6q7 0 13 4q3 3 3 5v4l-3 8zM338 231l-23 52l-23 -52h46zM108 155q11 0 19 11.5t14 27.5l71 176h9l73 -170q4 -9 18 -37q4 -8 17 -8v-8h-105v8q15 0 20.5 3t5.5 10q0 2 -3 11l-13 31h-72l-10 -26q-5 -12 -5 -18.5t10 -8.5q3 -2 16 -2v-8h-65v8zM229 223l-30 74h-4l-29 -74h63z" />
			<glyph glyph-name="fsharp" unicode="&#xe01f;" horiz-adv-x="436" d="M176 326l-71 -71l143 -143v71l-72 72l72 71v71zM222 280l-26 -25l52 -52v102zM332 183l71 72l-142 142v-71l71 -71l-71 -72v-71z" />
			<glyph glyph-name="git" unicode="&#xe020;" d="M108 248q0 3 0.5 6t2.5 6l7 11l80 79l1 -1q1 0 1 -1l29 -28q2 -3 0 -5q-1 -7 1.5 -13.5t7 -9.5t4.5 -8v-69q0 -3 -4 -6q-6 -5 -9 -11t-0.5 -13.5t8.5 -12t13 -4.5t12.5 4.5t8 11t0.5 13t-9 12.5q-4 1 -4 6v71h2l26 -25q1 -1 1 -2l1 -11q1 -8 8.5 -14t17 -5t15.5 9.5t4.5 17t-9.5 14t-17 4.5q-3 0 -7 2l-26 26q-2 2 -2 5q3 11 -6 19.5t-19 6.5q-5 0 -5 1l-28 28q-3 1 0 4l10 10l10 11q14 14 28 0l121 -121q15 -15 0 -28l-124 -125q-4 -4 -9 -5h-3q-9 5 -12 7q1 -1 -15 14l-15 15l-88 88l-4 9q-4 4 -5 7z" />
			<glyph glyph-name="git_brance" unicode="&#xe021;" d="M349 307q0 16 -11.5 27.5t-27.5 11.5t-27.5 -11.5t-11.5 -27.5q0 -11 5.5 -20t14.5 -14v-5q-1 -16 -12.5 -27.5t-27.5 -12.5q-24 0 -39 -9v93q9 6 14.5 14.5t5.5 19.5q0 16 -11.5 27.5t-27.5 11.5t-27.5 -11.5t-11.5 -27.5q0 -11 5.5 -19.5t14.5 -14.5v-128q-9 -5 -14.5 -14t-5.5 -19q0 -17 11.5 -28t28 -11t27.5 11t11 28q0 15 -10 26q1 1 5.5 5t5.5 5q8 3 19 3q30 1 53 24q11 11 17.5 27t7.5 32h-1q9 5 14.5 14t5.5 20zM193 369q10 0 17 -6.5t7 -16t-7.5 -17t-17 -7.5t-16 7.5t-6.5 17t6.5 16t16.5 6.5zM193 127q-10 0 -16.5 7t-6.5 16.5t6.5 16.5t16 7t17 -7t7.5 -16.5t-7.5 -16.5t-16.5 -7zM310 283q-10 0 -16.5 7t-6.5 16.5t6.5 16.5t16 7t17 -7t7.5 -16.5t-7.5 -16.5t-16.5 -7z" />
			<glyph glyph-name="git_commit" unicode="&#xe022;" horiz-adv-x="517" d="M329 254q-7 26 -29 43.5t-50 17.5t-50 -17.5t-29 -43.5h-64v-41h64q7 -27 29 -44.5t50 -17.5t50 17.5t29 44.5h64v41h-64zM250 188q-19 0 -32 13t-13 32t13 32t32 13t32 -13t13 -32t-13 -32t-32 -13z" />
			<glyph glyph-name="git_compare" unicode="&#xe023;" d="M214 178h-18q-7 0 -12.5 5t-5.5 13v114q8 4 13 12.5t5 18.5q0 15 -10.5 25.5t-25.5 10.5t-25.5 -10.5t-10.5 -25.5q0 -10 5 -18.5t13 -12.5v-114q1 -22 17 -38t37 -17h18v-36l55 55l-55 54v-36zM160 363q9 0 15.5 -6.5t6.5 -15.5t-6.5 -15.5t-15.5 -6.5t-15.5 6.5t-6.5 15.5t6.5 15.5t15.5 6.5zM360 191v114q-1 21 -17 37q-17 16 -38 17h-18v36l-55 -54l55 -55v37h18q7 -1 12.5 -6t5.5 -12v-114q-8 -5 -13 -13t-5 -18q0 -15 10.5 -26t25.5 -11t26 11t11 26q0 10 -5 18t-13 13zM341 138q-9 0 -15 6.5t-6 15t6.5 15t15 6.5t15 -6.5t6.5 -15t-6.5 -15t-15.5 -6.5z" />
			<glyph glyph-name="git_folder" unicode="&#xe024;" d="M380 327h-99l12 26h87v-26zM380 379h-113l-26 -52h-144v-206h309v258h-26zM304 131q0 1 0.5 2.5t1.5 3.5l3 5l39 38v0q1 0 1 -1l14 -13q1 -2 0 -3q-1 -3 0.5 -6.5t3.5 -4.5t2 -4v-33q0 -2 -2 -3q-3 -2 -4.5 -5t0 -6.5t4 -6t6 -2.5t6 2.5t4 5.5t0.5 6t-4 6q-2 0 -2 3v34h1l12 -12q1 0 1 -1v-5q1 -4 4.5 -7t8 -2.5t7.5 4.5t2 8.5t-4.5 7t-8.5 1.5q-1 0 -3 1l-13 13q-1 1 -1 2q2 6 -2.5 10t-9.5 3h-2l-14 14q-1 0 0 2l5 5l5 5q7 7 14 0l58 -59q7 -7 0 -13l-60 -60q-2 -2 -4 -3h-2q-4 3 -5 4q0 -1 -8 6q-4 5 -7 8l-42 42l-2 4q-2 2 -3 4z" />
			<glyph glyph-name="git_folder" unicode="&#xe025;" d="M385 359h-100l-23 -45h-126v-181h271v226h-22zM385 158h-224v133h224v-133zM385 314h-89l12 23h77v-23zM366 271h-271l41 -138h271zM304 131q0 1 0.5 2.5t1.5 3.5l3 5l39 38v0q1 0 1 -1l14 -13q1 -2 0 -3q-1 -3 0.5 -6.5t3.5 -4.5t2 -4v-33q0 -2 -2 -3q-3 -2 -4.5 -5t0 -6.5t4 -6t6 -2.5t6 2.5t4 5.5t0.5 6t-4 6q-2 0 -2 3v34h1l12 -12q1 0 1 -1v-5q1 -4 4.5 -7t8 -2.5t7.5 4.5t2 8.5t-4.5 7t-8.5 1.5q-1 0 -3 1l-13 13q-1 1 -1 2q2 6 -2.5 10t-9.5 3h-2l-14 14q-1 0 0 2l5 5l5 5q7 7 14 0l58 -59q7 -7 0 -13l-60 -60q-2 -2 -4 -3h-2q-4 3 -5 4q0 -1 -8 6q-4 5 -7 8l-42 42l-2 4q-2 2 -3 4z" />
			<glyph glyph-name="git_merge" unicode="&#xe026;" d="M332 268q-11 0 -20 -5.5t-14 -14.5v1q-16 0 -32.5 5t-29.5 14q-10 9 -20.5 22.5t-16.5 25.5q15 12 15 31q0 16 -11.5 27.5t-28 11.5t-27.5 -11.5t-11 -28.5q0 -10 5 -19t14 -14v-129q-9 -5 -14 -14t-5 -20q0 -16 11 -27.5t27.5 -11.5t28 11.5t11.5 27.5q0 11 -5.5 20t-13.5 14v71q19 -21 44 -33t59 -13v1q5 -10 14 -15t20 -5q16 0 27.5 11.5t11.5 27.5t-11.5 27.5t-27.5 11.5zM198 150q0 -9 -7 -16t-16.5 -7t-16.5 7t-7 16.5t7 16.5t16.5 7t16.5 -7t7 -17zM174.5 323q-9.5 0 -16.5 7t-7 16.5t7 16.5t16.5 7t16.5 -7t7 -16.5t-7 -16.5t-16.5 -7zM331.5 205q-9.5 0 -16.5 7t-7 17t7 16.5t16.5 6.5t16.5 -6.5t7 -16.5t-7 -17t-16.5 -7z" />
			<glyph glyph-name="git_pull" unicode="&#xe027;" d="M341 178v119q0 22 -17 39q-18 17 -39 18h-19v38l-57 -57l57 -57v38h19q7 0 12.5 -5.5t6.5 -13.5v-119q-9 -5 -14 -13.5t-5 -19.5q0 -16 11 -27t26.5 -11t26.5 11t11 27q0 10 -5 19t-14 14zM323 122q-10 0 -16.5 7t-6.5 16t6.5 16t16 7t16 -7t6.5 -16t-6.5 -16t-15.5 -7zM209 335q0 16 -11 27t-27 11t-27 -11t-11 -27q0 -10 5 -19t14 -14v-124q-9 -5 -14 -13.5t-5 -19.5q0 -16 11 -27t27 -11t27 11t11 27q0 10 -5.5 19t-13.5 14v124q8 5 13.5 14t5.5 19zM194 145q0 -9 -7 -16t-16.5 -7t-16 7t-6.5 16t6.5 16t16 7t16.5 -7t7 -16zM170.5 312q-9.5 0 -16 7t-6.5 16t6.5 16t16 7t16.5 -7t7 -16t-7 -16t-16.5 -7z" />
			<glyph glyph-name="github" unicode="&#xe028;" d="M282 185q8 2 17 3q27 8 37 28q12 23 6 51q-2 9 -11 21q-2 1 -2 4q4 17 -1 32q0 3 -4 3q-7 0 -18 -6q-6 -3 -14 -8q-2 -1 -4 -1q-33 8 -66 0q-2 0 -4 1l-14 8q-7 3 -15 4q-5 1 -6 0.5t-2 -5.5q-4 -14 0 -29v-3q-18 -19 -13 -49l3 -15q10 -28 42 -36l18 -4q-6 -6 -9 -17q0 -1 -1 -1v0q-12 -5 -22 -2.5t-17 14.5t-19 13h-7q-2 0 -2 -1v-3l3 -3q11 -6 15 -19q8 -18 30 -20q12 0 19 2v-27q0 -3 -3 -4.5t-7 -0.5q-16 6 -33 16q-65 46 -61 121q2 47 33.5 82.5t78.5 44.5q35 7 68.5 -4t58 -36.5t34 -59.5t0.5 -68t-32.5 -60t-56.5 -36q-11 -4 -11 8v33q3 19 -8 29z" />
			<glyph glyph-name="go" unicode="&#xe029;" d="M177 128q5 1 10.5 -2t7.5 -3q-1 -5 -9.5 -7t-11.5 2q-2 3 0 6zM289 121q-2 -1 8 5q5 4 10 4l4 -5q2 -3 1 -6t-10 -3q-5 0 -8.5 1t-4.5 4zM150 226q6 -3 7 -9v-9q0 -6 -8 -6q-6 6 -5.5 11.5t6.5 12.5zM335 202q-7 0 -7 6v9q1 6 7 9q6 -7 6 -12.5t-6 -11.5zM347 355q-6 7 -17 3q-8 -2 -17 4q-29 25 -69 26t-70 -23q-11 -9 -24 -7q-7 3 -12 -2.5t-3 -11.5q1 -5 5 -7l6 -4q6 -4 6 -9q-1 -10 1 -52q1 -31 -3 -51q3 -7 4 -10q0 -6 -5 -10l1 -22q5 -30 22 -45q5 -4 5 -8l9 -4q6 -3 9 -1q51 -11 93 0q7 0 18 9q15 12 22 33q5 16 7 39q-5 5 -5 10q0 3 3 10q0 9 -1.5 24.5t-1.5 24.5q3 28 2 23q1 13 -0.5 23.5t8.5 19.5q7 2 9 7t-2 11zM200 279q-11 -1 -19.5 8t-8.5 21q0 14 9 24t22.5 10t20.5 -7.5t7 -21.5q2 -15 -8 -24t-23 -10zM284 279q-12 1 -21 9q-11 9 -10 25q0 14 7.5 21.5t20 7.5t22.5 -10t10 -24q0 -11 -9 -20t-20 -9zM253 277q3 0 4 -1q0 1 3 -2t4 -5t0 -5t-4 -4.5t-7.5 -2.5t-10.5 -1q-10 1 -9 1q-5 1 -8 3t-3 8q0 8 11 9q3 -6 9.5 -6t10.5 6zM253 277q2 -9 -9 -9q-7 0 -10.5 1.5t-2.5 7.5q6 5 11.5 5t10.5 -5z" />
			<glyph glyph-name="gradle" unicode="&#xe02a;" d="M228 337h78l40 -67h44q-5 33 -24 59.5t-48.5 42t-63.5 15.5q-28 0 -49 -10zM347 229l-41 -72h-104l-53 91l42 71l-22 37q-26 -18 -40 -46.5t-14 -61.5q0 -38 19 -70t51 -50.5t68 -18.5t65 15.5t48.5 42.5t23.5 60zM302 248q0 -21 -14 -35.5t-35 -14.5t-35.5 14.5t-14.5 35.5t14.5 35.5t35.5 14.5t35 -14.5t14 -35.5z" />
			<glyph glyph-name="grails" unicode="&#xe02b;" d="M244 165q-2 0 -3.5 0.5t-5.5 0.5l-12 4q-6 4 -3 8t5 12q6 12 8 21q3 12 1 22q-2 21 -20 28t-28 17q-14 14 -21 26q-8 15 -7 33h185q0 -20 -8 -34q-16 -28 -48 -42q-20 -10 -21 -30q-1 -12 3 -26q3 -8 11 -23q2 -5 1 -7t-7 -5l-6 -3l-12 -2h-6q-1 2 -6 0zM401 276q-2 -1 -2 -4l-2 -4q-10 -22 -29 -28q-14 -3 -14 -19q0 -6 2 -14q1 -5 5 -13q3 -6 1.5 -8.5t-8.5 -3.5q-13 -1 -25 2q-6 1 -2 7q9 16 8 29q-2 10 -4 13.5t-9 3.5q-4 0 -7 4l4 2q27 10 43 39q2 2 6 2h33v-8zM100 286h31q4 0 5 -4q16 -25 48 -39l-4 -3q-8 -3 -11 -8t-3 -14t6 -22q3 -5 4 -6q3 -6 -1 -6q-17 -7 -34 0q-4 0 -2 7q5 10 6 15q3 9 2.5 16.5t-3.5 10.5t-9 4q-22 7 -33 33q0 1 -0.5 2.5t-1.5 1.5v12z" />
			<glyph glyph-name="grunt" unicode="&#xe02c;" d="M341 246q15 8 18 9q9 7 9 16t-9 13q-3 2 -5 9q-2 12 4.5 22t2 17.5t-18.5 8.5h-1l-1 1q-2 7 -1 10q1 5 6 8q3 2 11 4q3 1 7 1q0 1 -1 2v0q-14 15 -36 13q-12 -2 -20 -7t-15 -15q-3 -3 -7 0q-4 0 -4 4l2 7l4 9q-6 0 -11 -3l-9 -6q-6 10 -2 20q-10 -3 -15.5 -8.5t-8.5 -13.5q-2 2 -2 7q0 -3 0 8h-1l-3 -1q-11 -8 -12 -19l-2 -4l-4 2l-17 14q-23 13 -47 1l-11 -11l16 -6q8 -1 9.5 -6t-1.5 -12l-8 -2q-7 -2 -10.5 -6.5t-2.5 -11.5l6 -12l2 -4v-14q0 -3 -6 -8l-4 -4q-4 -3 -5 -6q-2 -5 0 -10.5t8.5 -10.5t17 -9.5t10.5 -15.5q0 -16 -1 -24l-1 -11q-14 11 -16 24q-12 -11 -12 -23q-2 -14 4.5 -26t22.5 -18q1 0 3 -2q13 -21 38 -25q2 0 2 -2q19 -12 47 -9q18 2 25 8l6 3q22 3 35 23l4 4q14 5 19 14q10 13 7 32q-2 10 -12 21q-4 -15 -15 -24q-2 13 -2 36q4 15 14 19v0zM226 173h25h36h-61z" />
			<glyph glyph-name="gulp" unicode="&#xe02d;" d="M313 404l-6.5 -5.5t-15.5 -15.5l-20 -19l-7 -28l-24 -1q-32 0 -51 -2.5t-22 -5.5q-1 -1 -1 -1.5t1 -1.5q5 -2 21.5 -5t38 -3.5t43.5 0t38 4.5q11 3 13.5 5t-2.5 3q-5 2 -17.5 4t-20.5 2q-2 0 -2.5 0.5l-0.5 0.5q0 1 1 4t2 8l3 12l21 19q7 6 12.5 12t5.5 7q0 3 -3.5 5.5t-6.5 1.5v0zM167 319q0 -1 1.5 -12.5t3 -25t3 -25l1.5 -11.5l0.5 0.5t0.5 1.5q5 12 13.5 21t15.5 10q4 1 7 0t6 -4t4.5 -5.5t-2.5 -4.5q-1 -1 -3 0.5t-3 3.5q-4 5 -10 2.5t-12 -12.5q-9 -12 -10.5 -22t5.5 -10q3 0 6.5 3.5t7.5 6.5l3 4.5t3 5.5q1 4 1.5 5.5t1.5 1.5l1 1t2 1q1 -2 1.5 -2t0.5 -2q0 -1 -0.5 -3.5t-1.5 -5.5q-1 -4 -3 -9l-6 -15q0 -2 -1 -4t-1 -3q-1 -1 -2.5 -1t-1.5 1q-1 1 -0.5 3t1.5 7q0 2 1.5 4.5l1.5 2.5q0 1 -1.5 0t-3.5 -2q-5 -4 -10 -6t-9 -1h-0.5t-0.5 -1q0 -3 2.5 -25t3.5 -22q3 -2 12 -4.5t20 -4.5q10 -1 29 -1t26 1q8 1 14.5 3t10.5 3q7 2 8 4.5t4 27.5q2 11 3 19.5l1 8.5l-2 -0.5t-3 -2.5q-4 -2 -7.5 -4t-7.5 -2q-2 0 -3.5 1t-2.5 3q0 1 1.5 3t4.5 7q4 4 5 5.5t1 2.5q0 3 -3.5 1t-7.5 -5q0 -1 -1.5 -2.5t-1.5 -3.5q-3 -2 -6 -9t-5 -15q-3 -3 -4 -5t-4 -2l-1.5 0.5t-1.5 1.5t1.5 5t5.5 10q1 4 2.5 6.5l1.5 2.5l-1 -0.5t-2 -1.5q-2 -2 -6 -3.5t-5 -1.5q-2 0 -4 1.5t-2 2.5h-0.5t-3.5 -1q-4 -3 -6.5 -2t-2.5 5v2l-3 -2q-5 -3 -10 -4.5t-7 0.5q-2 1 -2 4t2 9q5 8 7.5 12.5t4.5 3.5q1 -1 1 -3t-2 -7q-4 -7 -4.5 -10.5t3.5 -2.5q3 1 7 5t6 10q2 3 2.5 5t1.5 2q1 1 2.5 1t1.5 -3q1 -1 0.5 -3t-3.5 -6q-1 -3 -2 -5.5t-1 -4.5q0 -1 0.5 -1.5t1.5 -0.5t3.5 1.5t2.5 2.5q3 5 11.5 23t9.5 19q0 1 1 1h1q2 0 2.5 -0.5t0.5 -1.5l-0.5 -2t-2.5 -6q-5 -10 -10.5 -22t-5.5 -13v-1.5v-0.5q2 0 5.5 1.5t7.5 5.5q3 2 4 3.5t2 2.5q2 6 3.5 8t3.5 0q1 0 1 -0.5v-1.5v-2v-1l1 1l2 2q5 4 8.5 4.5t6.5 -0.5q2 -2 2 -2.5v-2.5q0 -3 -2 -6t-8 -8q-1 -1 -2 -2.5l-1 -1.5h0.5h1.5l7 4t9 6q0 1 1 11t4 31q2 17 3.5 29.5l1.5 12.5l-1.5 -0.5t-2.5 -0.5q-4 -1 -12.5 -2.5t-18.5 -2.5q-6 -1 -17.5 -1h-23h-23.5h-18q-10 1 -19 2t-14 4l-5 1v-1v0zM188 166l2 -2.5t3 -5.5l5 -8l2 -24l2 -26l2 -1q4 -4 13.5 -5t23.5 -2q16 0 28 1.5t16 5.5l2 1l2 26l2 25l4 7q1 3 3 4.5l2 1.5q0 2 -2 1t-3 -1q-8 -2 -19.5 -3.5t-23.5 -2.5q-14 0 -31.5 1.5t-28.5 4.5q-1 0 -2.5 1l-1.5 1v0z" />
			<glyph glyph-name="hacklang" unicode="&#xe02e;" d="M248 396v-2v-84q0 -2 -1 -4l-87 -87v0q0 -1 -1 -1v87q0 1 1 1zM357 271v-1v-86q0 -2 -1 -2l-89 -87h-1v87h1q16 15 45 44.5t45 44.5h-1h1zM353 292l-87 -88v86q0 2 1 2h86zM250 288v0v-86q0 -2 -2 -2h-86q43 45 88 88zM159 98v0v84q0 2 1 2h86q0 1 -43 -44q-26 -26 -44 -42z" />
			<glyph glyph-name="haml" unicode="&#xe02f;" d="M323 275q-7 2 -8 11q-1 6 1 14l2 7l18 16h3q4 0 7.5 2t3.5 6v5l14 15q0 2 -3.5 5.5t-12 10t-14 8t-9.5 0.5l-17 -13h-2q-4 -1 -6 -2t-1 -4l1 -4l-66 -55l-34 78l2 2q1 3 0.5 6t-3.5 4l-2 1q-5 9 -9 12l-2 2q-12 3 -23 0q-7 -2 -12 -7l-4 -4q-1 -1 0 -6l2 -5l-2 -2q-1 -3 0 -8t3.5 -6.5t4.5 -0.5h2l43 -97q0 -5 -17 -70l-17 -65q12 -12 29 -16q12 -3 25 -1l11 2q0 10 10 61l9 49q14 -13 31 -18q12 -5 21 -5q0 -4 1 -8l1 -3l8 -2q10 -1 19 1q12 3 19 14q2 2 2 5l5 2q5 3 9 8t4 13q0 14 -18 27q-10 7 -29 15zM355 216q2 7 0 14l-3 4l-1 -3q-2 -3 -6 -6t-12 -5.5t-13 -1.5t-8 3l-2 2l-6 -11q-36 6 -52 30q-1 3 0 10l2 6l48 36q-1 -10 4 -17t12 -11l16 -7q11 -5 18 -11q10 -8 10 -17q1 -5 -1.5 -9t-5.5 -6z" />
			<glyph glyph-name="haskell" unicode="&#xe030;" d="M224 352l52 -76q-29 43 44 -66q25 -38 42 -65h-51l-1 2l-42 62l-42 -62l-2 -2h-51v2l67 101v1l-67 102v1h51zM155 144h-51v1q-7 -10 9 14q5 8 10 14l48 74v1q-34 56 -67 103h51l2 -1l33 -50q-11 16 18 -26q10 -15 16 -26v-1l-69 -103l2 1zM398 257v0h-93l-22 33v2h115v-35zM398 204v1v-1h-59l-22 34v1h81v-35z" />
			<glyph glyph-name="heroku" unicode="&#xe031;" d="M322 278q-3 20 -22 29q-9 4 -19 4q-17 3 -32 -2q-32 -5 -47 -11h-2v93h-44v-145h2q5 3 15 7l16 5q39 12 55 14q7 2 22 2q5 0 10 -2.5t5 -7.5v-160h43v158q0 12 -2 16v0zM340 393h-46q-3 0 -3 -2q-12 -27 -25 -44q3 3 -3 -6q-3 -3 -4 -6h46q2 0 2 2l17 24q13 23 8 15q5 8 8 15v2v0zM156 106l44 44l-44 45v-89z" />
			<glyph glyph-name="html" unicode="&#xe032;" d="M129 275l97 90v-42l-73 -65l73 -64v-42l-97 90v33zM388 241l-97 -91v44l74 64l-74 65v44l97 -91v-35z" />
			<glyph glyph-name="image" unicode="&#xe033;" d="M331 233q11 0 19 8t8 19.5t-8 19.5t-19.5 8t-19.5 -8t-8 -19.5t8 -19.5t20 -8zM162 317v-189h233v189h-233zM172 307h213v-166l-56 63l-33 -40l-67 72l-57 -70v141zM321 375h-216v-165h29v139h187v26z" />
			<glyph glyph-name="info" unicode="&#xe034;" d="M392 259q-2 33 -23 65q-30 46 -83 59q-15 4 -28 4h-23q-41 -4 -75 -30q-40 -33 -50 -79q-3 -15 -3 -23v-23q4 -40 24 -67q25 -37 62 -52q27 -9 48 -11h23q52 4 88 43q29 29 38 71l4 20v16q-2 3 -2 7zM249 125q-33 0 -60 16.5t-43 44t-16 60.5t16.5 61t44.5 44.5t60.5 16t60.5 -17t44 -44t16 -60.5t-17 -60.5t-44.5 -44t-61.5 -16.5zM283 169q-4 0 -6 1t-3 3l-2 2v93l-67 -4v-11h14q9 0 9 -10v-65q0 -9 -9 -9h-12v-11h85v11h-9zM246 285q11 0 18 7t7 16.5t-7.5 17t-17.5 7.5t-16.5 -7t-6.5 -16.5t7 -17t16 -7.5z" />
			<glyph glyph-name="ionic" unicode="&#xe035;" d="M372 306q9 9 9 24t-10.5 26t-25.5 11q-9 0 -20 -6q-32 24 -77 24q-38 0 -70 -19t-51 -51t-19 -70t19 -70t51 -51t70 -19t70 19t51 51t19 70q0 33 -16 61zM248 128q-33 0 -59.5 15.5t-42 42.5t-15.5 59t16 58.5t42.5 42.5t58.5 16q36 0 65 -19q-4 -8 -4 -13q0 -14 11 -25t26 -11q6 0 8 2q11 -25 11 -51q0 -33 -15.5 -59.5t-42 -42t-59.5 -15.5zM248 303q-24 0 -41 -17t-17.5 -41t16 -41t41 -17.5t41 16t17.5 41t-16 42t-41 17.5z" />
			<glyph glyph-name="jade" unicode="&#xe036;" d="M382 198q-3 20 -2 45q4 16 1 25t-5 24q-6 37 -13 54q-2 4 -4.5 6.5t-6.5 2.5q-9 0 -9 -8l6 -37l5 -27v-5q-4 0 -5 1q14 -10 -8 6q-4 2 -7 6q-10 14 -16 28l-15 37l-9 16q-5 9 -13 12.5t-18 3.5q-6 0 -6 -5l2 -6q0 -4 2 -6l35 -65q2 -5 13 -19q4 -5 3 -8t-7 -6q-1 0 -3 -2q-14 -3 -25 8q-11 9 -24 11l-13 1q-33 2 -55 -5q-34 -13 -50 -56q-3 -8 -8 -27l-3 5q-3 2 -3 4q1 1 -1.5 -1t-3.5 -3v-7q0 -6 2 -11q16 -37 27 -69q4 -8 12 -8q22 -3 39 1l24 5q-6 5 -8 6l1 3l18 -4q34 -13 66 -11q8 0 9 6l4 7q4 13 14 28q5 7 7 9.5t5 1.5l10 -3q12 -4 22 1.5t12 16.5q2 6 2 18zM367 214q-4 -4 -5 -4q-22 -2 -34 4q-3 1 -6 3l-5 6q7 3 11 4q16 2 33 -6q1 0 1 -1l1 -1q4 -4 4 -5z" />
			<glyph glyph-name="java" unicode="&#xe037;" d="M277 397v0v0q5 -5 6 -16v-5q0 -4 -2 -13.5t-11 -20.5l-10 -11l-14 -12q-9 -7 -14 -13t-6 -12q-2 -11 0 -18q1 -8 6 -14l10 -15l5 -9l-2 1q-6 5 -11 12q-12 11 -17 18.5t-6 13.5q-1 2 -1 8q0 9 5 15q4 7 15 15l30 24q7 8 12 14q5 8 6 19q0 -1 0.5 2t-0.5 5q0 9 -1 12v0zM141 136v0q1 3 4 4l11 6q11 4 20 6h9l3 -2q-9 0 -16 -3l-10 -4q-2 -2 0 -4l2 -1l13 -3q11 -3 19 -3l16 -2h38h14h13l19 2l18 3q12 2 18 4l6 3v0l2 2q2 2 0 5v1h1l1 -1q5 -4 0 -6l-4 -4q-9 -4 -15 -5q-6 -3 -23 -6q-11 -2 -19 -2l-11 -1l-18 -1h-26q-11 0 -16 1l-17 1q-7 0 -18 2l-19 2q-2 0 -9 4q-2 0 -4 2l-1 1l-1 -2v1zM240 107h-4h-19t-18 2l-15 4l-3 2h2l32 -4q9 -2 32 -2q13 0 18 2l16 1q22 3 33 5q12 2 24 7l4 1q2 0 2 1q8 4 9 6v-2q-2 -4 -3 -5l-9 -6q-9 -4 -15 -6q-7 -2 -21 -4l-16 -2q-8 0 -11 -2l-18 -1q-4 3 -20 3zM313 338q0 -1 -2 -1q-5 -2 -10 -6l-8 -6q2 2 -9 -5l-7 -6q-3 -2 -8 -10q-4 -4 -4.5 -8t1.5 -10q1 -3 6 -10l5 -7q4 -5 4 -11t-1.5 -9t-5.5 -8q-9 -7 -17 -13l3 2q3 5 5 10q4 7 -1 15l-4 6q-6 7 -8 13.5t-2 8.5q-3 8 1.5 16t10 13t17.5 12q7 3 23 11q8 2 10 3h1zM293 159q-3 -1 -5 -2q-8 -5 -26 -7l-12 -1h-12q-15 0 -27 3q-7 3 -11 6l-4 3q-1 3 0 6l2 2q5 5 9 5l-2 -4q-2 -2 0 -3t4.5 -2t7.5 -1h11h19h15l15 3l8 -5q9 -3 8 -3v0zM310 226q-8 -3 -8.5 -4t-2.5 -1v0q-1 -2 -3 -2l-15 -3l-16 -2l-25 -2h-32h-17q-7 0 -16 3l-6 1l-4 1q-1 2 0.5 4.5t3.5 2.5l12 6q6 3 20 5q5 1 14 1v0q-5 -1 -20 -6l-9 -5q-2 -2 0 -4h2q3 -2 7.5 -2h15.5h21h18.5t9.5 2l23 2l15 2zM202 204q0 -1 -0.5 -1t0.5 1q0 -1 -1 -2l-1 -1q-1 -3 1 -5q1 -1 3.5 -1.5t7.5 -0.5l14 -1h28q8 0 22 2l13 2l10 -7h1l-3 -1q-8 -2 -22 -4l-15 -3q-8 -1 -24 -1q-12 0 -17 1l-8 1q-6 1 -10 2l-8 4q-2 0 -3 2.5t2 5.5l2 4l3 1q2 1 5 2v0v0zM310 183q0 1 1 2h1q11 8 17 11q7 5 11 13l3 8q1 8 -5 17q-7 4 -11.5 4t-5.5 -1l-4 -1v1q2 2 4 2q8 2 12 2q7 0 14.5 -5.5t7.5 -12.5t-1 -11q-4 -7 -9 -10q-7 -6 -19 -12q-8 -5 -16 -7v0zM313 338v0v0v0v0zM202 204v0v0v0v0zM247 238v0v0v0zM338 148v0v0v0v0z" />
			<glyph glyph-name="javascript" unicode="&#xe038;" d="M174 348h44v-122q0 -40 -17.5 -57.5t-52.5 -17.5q-20 0 -32 5l5 36q10 -5 23.5 -5t21.5 8.5t8 30.5v122zM256 200q10 -6 23 -9.5t26 -3.5q31 0 31 21q0 9 -7.5 15t-25.5 12q-53 19 -53 58q0 26 20 42.5t54 16.5q28 0 50 -10l-9 -36l-16 6q-12 4 -25.5 4t-21 -5.5t-7.5 -14t9 -14.5q6 -5 27 -13q25 -10 37.5 -24t12.5 -34q0 -26 -20 -42q-21 -18 -59 -18q-29 0 -55 12z" />
			<glyph glyph-name="jshint" unicode="&#xe039;" horiz-adv-x="0" d="M113 387h273v-273h-273v273zM185 159q11 -24 38 -24q18 0 28.5 10t10.5 29v88h-26v-87q0 -9 -3.5 -13t-10.5 -4q-4 0 -7.5 2t-5 4.5t-3.5 7.5zM275 162q14 -27 47 -27q19 0 31 9.5t12 26.5q0 15 -8.5 24t-25.5 16l-7 3q-9 4 -12 7t-3 9q0 5 3 8t9 3q10 0 16 -11l20 13q-12 20 -36 20q-17 0 -27.5 -9.5t-10.5 -24t8 -23.5t23 -16l6 -2q8 -3 11 -5t5.5 -5t2.5 -7q0 -6 -5 -9.5t-12 -3.5q-16 0 -26 16z" />
			<glyph glyph-name="json" unicode="&#xe03a;" d="M120 258q15 0 22 8q5 5 5 15l-4 52q0 47 52 47h12v-29h-5q-12 0 -16 -6.5t-4 -18.5l3 -43q0 -19 -7.5 -27.5t-22.5 -12.5v0q15 -4 22.5 -13t7.5 -27l-3 -42q0 -12 4 -18t16 -6h5v-29h-12q-50 0 -50 46q0 17 1.5 26t1.5 26q0 23 -26 23zM382 232q-27 0 -27 -23l2 -26q1 -9 1 -26q0 -46 -52 -46h-12v26h6q11 0 15.5 6t4.5 18.5t-2 18.5l-1 23q0 18 7 27t22 13v0q-15 4 -22 12.5t-7 27.5l1 23q2 7 2 20q0 23 -20 25h-6v29h12q52 0 52 -47l-1 -25q-2 -10 -2 -27q0 -10 5 -15q5 -8 22 -8v-26z" />
			<glyph glyph-name="julia" unicode="&#xe03b;" d="M120 189q0 -26 18 -44.5t44.5 -18.5t44.5 18.5t18 44.5t-18 44.5t-44.5 18.5t-44.5 -18.5t-18 -44.5zM271 189q0 -26 18.5 -44.5t44.5 -18.5t44.5 18.5t18.5 44.5t-18.5 44.5t-44.5 18.5t-44.5 -18.5t-18.5 -44.5zM195 328q0 -26 18.5 -44.5t44.5 -18.5t44.5 18.5t18.5 44.5t-18.5 44.5t-44.5 18.5t-44.5 -18.5t-18.5 -44.5z" />
			<glyph glyph-name="karma" unicode="&#xe03c;" d="M145 388v-74l52 -196h24v78h12l53 -78h78l-92 139v8l86 125h-83l-42 -69h-12v67h-76z" />
			<glyph glyph-name="key" unicode="&#xe03d;" d="M225 190l-15 -15l26 -27l-31 -31l-26 26l-20 -19q-7 -7 -16 -7t-15 7v0q-7 6 -7 15t7 16l127 127q-9 15 -9 33q0 20 10 37t26.5 26.5t36.5 9.5t37 -9.5t26.5 -26.5t9.5 -37t-9.5 -36.5t-26.5 -26.5t-37 -10q-18 0 -33 9l-29 -30l21 -20l-32 -31zM319 274q17 0 29.5 12t12.5 29t-12.5 29.5t-29.5 12.5t-29 -12.5t-12 -29.5t12 -29t29 -12v0z" />
			<glyph glyph-name="less" unicode="&#xe03e;" d="M167 339v-108q0 -10 2 -13.5t10 -5.5l-3 -18q-4 0 -8 1t-7 3q-7 3 -9 10t-2 15v47v46v6q-3 -1 -6 -1h-5q-4 -1 -5.5 -4t-1.5 -9v-13v-13q0 -3 -0.5 -6t-0.5 -7q-1 -5 -3 -10t-6 -8v-1v0q6 -5 8 -12t2 -16v-13v-13q0 -10 2.5 -13t9.5 -3l2 -1v-17q-5 0 -10.5 0.5t-9.5 4.5q-5 4 -7.5 9.5t-2.5 13.5v14v14v4v2q-1 9 -3.5 13t-9.5 5v0.5v0.5v7.5v7.5v1q7 2 10 6t3 14v11v12v8t1 7q1 9 6 14t13 7q2 1 4.5 1h4.5h10.5h11.5v0v0zM197 237q-1 -9 3.5 -15.5t11.5 -8.5q7 -1 13.5 0t13.5 4q1 -4 1.5 -8.5t0.5 -7.5q0 -1 -0.5 -1.5l-1.5 -1.5q-10 -4 -19.5 -4.5t-19.5 4.5q-7 3 -11 8.5t-7 12.5q-4 13 -3.5 26t4.5 24q6 18 20 23t26 -3q7 -3 11 -11t5 -18q1 -5 1 -11v-12h-24.5h-24.5v0v0zM229 254q0 10 -4 15.5t-12 5.5q-6 0 -11 -6t-5 -15h32v0zM354 162v17l4 1q5 0 7.5 3t2.5 11v12.5v14.5q1 2 1 5v7q1 5 3 9.5t6 7.5q-7 6 -8 14.5t-2 17.5v12v12q0 9 -2.5 12t-9.5 3l-2 1v17q6 0 11.5 -1.5t10.5 -4.5q4 -4 6 -10t2 -12v-15.5t1 -16.5v-4v-5q1 -5 4 -8t8 -3v-17q-4 0 -7.5 -3t-4.5 -8v-5v-4q-1 -9 -1 -16.5v-15.5q0 -13 -5.5 -19t-14.5 -8q-3 -1 -5 -1h-5v0v0zM357 289l-3 -17q-6 2 -11 3.5t-11 -0.5q-3 0 -5 -1.5t-3 -5.5q0 -3 1 -6t5 -6l5 -2.5t6 -3.5q2 0 3.5 -1.5t2.5 -1.5q8 -5 11 -12t2 -18q0 -8 -4.5 -13.5t-12.5 -8.5q-9 -2 -18.5 -1.5t-18.5 5.5l2 18q4 -2 8 -3l8 -2h7h6q3 1 4.5 2t1.5 4q1 4 0 6.5t-3 3.5q-2 3 -5 5t-6 3t-6.5 3t-6.5 4q-9 7 -9 23t11 22q3 3 6.5 4t6.5 1q6 1 12.5 0t13.5 -4v0zM301 289l-4 -17q-5 2 -10 3.5t-11 -0.5q-4 0 -6 -1.5t-2 -5.5q-1 -4 0.5 -6.5t4.5 -5.5q3 -1 6 -2.5t6 -3.5q2 0 3.5 -1.5t2.5 -1.5q8 -6 11 -13t2 -19q-1 -7 -6 -13t-13 -7t-16 -1t-16 4q-2 0 -2.5 1t-0.5 4q1 4 1.5 7t0.5 7q4 -2 8 -3l8 -2h6.5h6.5l4 2t2 5q0 3 -0.5 5.5t-2.5 3.5q-3 3 -6 5t-6 3q-3 2 -6 3.5t-6 3.5q-9 7 -9 23t11 23q4 3 9 4t10 0q5 0 10 -1t10 -3v0v0z" />
			<glyph glyph-name="license" unicode="&#xe03f;" d="M282 289q-1 21 -16 34t-37 13h-18q-2 16 5 27q8 14 26 15.5t29 -10t11 -30.5q0 -4 2 -5l11 -11q5 15 1 32.5t-17.5 27.5t-31.5 11q-24 0 -36 -12q-9 -9 -13 -22.5t-1 -28.5t15 -26q3 -3 14 -9q4 -1 7.5 1.5t3.5 6.5q0 9 -8 10q-2 0 -4 2v2q4 1 8 -0.5t7 -3.5q5 -5 3 -15q-1 -7 -6.5 -9.5t-13.5 -0.5q-18 5 -28 25l-6 11q-8 -8 -12 -13q-5 -8 -7 -17q-6 -33 18 -56q3 -2 1 -6q-1 -17 -5 -28l-10 -62q-1 -10 0 -20q3 -9 10 -12l19 116q0 4 3 4t3 -5q-1 -14 -6 -36l-12 -79v-2h1l17 -2q8 0 16 10q5 6 1 14q-3 2 -3 4q-5 7 3 11l5 3q2 1 2.5 3t-1.5 4l-10 11l-1 4q-1 5 2 4l13 6q2 1 2.5 2.5t-1.5 4.5l-4 5q-2 2 -1.5 6t3 6t5.5 2q3 2 3 5l2 11q0 3 2 6q4 4 14 8q25 19 21 53v0zM327 146q0 5 -5.5 5t-6.5 4q-2 6 0 12q4 7 -5 10h-9q-4 0 -4 4l-1 8q0 4 5 9q2 3 1.5 4t-2.5 3l-5 4q-4 2 -4.5 4t2 5.5l2.5 3.5q3 4 1 8q-4 8 -5 9q-2 4 0 7q16 32 4 62q-10 21 -33 26l-1 -1l3 -5q24 -20 24 -49q0 -33 -27 -53q-4 -2 -3 -6l14 -36l30 -70l2 -2q1 -1 2 -1q11 6 17.5 15.5t3.5 19.5v0zM252 220q0 -2 -1 -6l-1 -6v-8l26 -65q5 -11 12 -17q6 -3 7 -4l1 1q-14 35 -44 105v0z" />
			<glyph glyph-name="liquid" unicode="&#xe040;" d="M277 207q0 -11 -1 -23q-4 -45 -4 -68v-9v-2l-44 9l-19 2q-14 3 -18 3l-56 10q-6 2 -23 6q-1 0 -1 3q2 14 6 48l1 10q1 0 1 2v4l3 23q4 14 4 22q5 36 7 57q0 5 5 9l25 7q3 0 3 5q4 21 19 43q9 13 22 19l14 2q13 0 18 -7q1 -2 3 -2q12 0 18 -8q5 -6 10 -17q0 -1 2 -1l8 2h2.5t0.5 -2l-7 -144q1 -1 1 -3zM172 214q5 -5 10 -8q8 -6 9.5 -12t-0.5 -10t-7 -5h-7q-11 2 -22 10h-1l-2 -1q-3 -12 -5.5 -18t2.5 -8q20 -16 42 -13q23 2 32 24q5 11 5 21t-7 20l-2 3q-5 8 -19 15l-8 8q-3 6 -1 12.5t9 9.5q14 1 28 -4q0 -1 1 0t1 2l9 25q1 4 0.5 4.5t-3.5 1.5q-14 4 -31 1t-29.5 -15t-12.5 -30q-5 -19 9 -33zM228 378q0 1 -2 1.5t-5 -0.5h-5q-11 -4 -20 -15q-11 -13 -19 -39v-1l21 5q1 0 1 1l1 9q6 14 11 22q7 10 17 17zM239 348q0 7 -3 18l-1 3q-1 0 -2 -1q-6 -4 -8 -7q-9 -11 -13 -25v-1h2q3 0 10 3l9 3q4 1 5 1.5t1 5.5zM250 345l12 4v1q-3 10 -9 16q-3 3 -6 5h-1l1 -7q2 -5 2 -16q0 -3 1 -3zM381 156l4 -30q0 -1 -2 -3l-49 -9q-21 -5 -35 -7l-2 -1q-1 0 0 2q0 9 2 14l2 58v15q0 9 1 14v9l5 76v14q2 12 2 33v14v-1l11 -10q2 -2 3 -4t7 -2l18 -2q3 0 3 -2l25 -162z" />
			<glyph glyph-name="livescript" unicode="&#xe041;" d="M251 368v-3v-102q2 0 2 1h1l1 1v0v0v1h1l1 2h1v2h1l1 2v86q0 4 4 4h9q2 0 2.5 -0.5t0.5 -3.5v-70h3l1 1v2l2 2l1 2l-1 1v54h16v-40l3 2l15 15q1 0 1 3v21q2 1 5 1l4 -1l4 1l5 -1q5 0 0 -4v-11v-4h14q2 0 2 -2v-14h-4l4 2h-20q-1 0 -1 -1t-9 -10q-6 -5 -9 -9q0 -2 3 -2h36v-12q0 -3 -0.5 -4t-3.5 -1h-52q-1 0 -1 -1l-18 -17h75v-13q0 -2 -1 -2.5t-3 -0.5h-89h-1h-1l-1 -1v-1v-2h-1l-1 -1h-1l-2 -3q-2 0 -2 -1v0q1 -1 2 -1l1 1h106q1 0 1 -2v-9q0 -4 -0.5 -4.5t-3.5 -0.5h-125l-8 -8q1 -1 3 0h141q3 0 3 -3v-14h-160q-3 0 -5 -2l-15 -15l1 -1h193q2 0 2.5 -0.5t0.5 -2.5v-27q0 -3 -0.5 -3.5t-3.5 -0.5h-206l-1 -2l1 -1v-32h-34q-2 0 -2 3v32l-1 1l-2 -1h-28q-2 0 -2.5 0.5t-0.5 2.5v28q0 3 3 3h31h-34q1 1 2 1l1 -1h33v1v205v3h2h27q3 0 4 -0.5t1 -3.5v-194q1 1 3 3.5t2 1.5l5 6q3 4 6 6q2 0 2 3v160q2 1 4 0h10q1 1 2 0t1 -3l-1 -4v-136q12 11 19 16v3l1 124h15q2 0 2 -2q2 2 3 2h2q-1 -36 -1 -103v-2q1 1 1 2l-1 1v99q1 0 1 1v2zM181 143q1 1 2 1l2 -1h203q3 0 3.5 0.5t0.5 3.5v27q0 2 -0.5 2.5t-2.5 0.5h-193q-1 0 -1 1h195h2v-32q0 -2 -0.5 -2.5t-2.5 -0.5h-208zM181 191v2v192q0 3 -0.5 3.5t-3.5 0.5h-27q-2 0 -2 -0.5v-2.5v-207v208l-1 2h31q3 0 3 -3v-195zM287 298l-1 1l1 1v68q0 3 -0.5 3.5t-4.5 0.5h-8q-5 0 -5 -4v-86q0 -3 -1 -3q1 2 1 5v87q0 1 0.5 1.5t3.5 0.5h12q3 0 3 -2v-68q-1 -3 -1 -5zM246 232h2h2h121h3.5t0.5 4v9q0 3 -1 2h-108h108q1 0 1.5 -0.5t0.5 -1.5v-12q0 -3 -2 -3h-124q-2 2 -4 2zM200 371q1 -1 0 -2v-158q0 -3 -2 -3v160q1 1 1 2zM374 197v14q0 2 -3 2h-143h140q3 0 3.5 -0.5t0.5 -3.5v-11q2 0 2.5 -0.5t-0.5 -0.5zM235 371v-124q0 -2 -2 -2v124q1 0 1 1t1 1zM316 300q0 2 3 2h50q5 0 5 4v10q0 2 -0.5 2.5t-2.5 0.5h-34q-2 0 -2 1h40q1 0 1 -1v-17h-53q-6 0 -7 -2v1v-1zM251 368q-1 -1 0 -2v-103v2q-2 51 0 103q-1 0 -1 1t1 2v-3zM281 266q1 1 2 1l1 -1h85q3 0 4 0.5t1 3.5v12q1 0 1 -3v-13q0 -2 -3 -2q-30 2 -91 2zM111 178h34h-31h-2.5t-0.5 -3v-28q0 -2 0.5 -2h2.5h31h-32q-2 0 -2 1v32zM305 371v-5v-52v55l-1 2q0 1 1 0zM317 302h4h53h-57zM322 332q-1 0 0 1v39v0v-1v-39zM351 337q0 1 1 2h20l-4 -2h-17zM374 319h-2h-37h39zM180 108v32v3v-32l1 -1zM374 337v14q0 3 -3 3h-13h16q1 -3 1 -8zM340 371q1 0 1 -1l-1 -2v-18q0 -2 -1 -4zM276 261q0 2 2 2l-1 -1q-1 0 -1 -1zM267 252q0 2 1 2v-1q0 -1 -1 -1zM275 259v2v-2v1v-1zM253 263v-2v2l-1 -1zM278 264q0 1 0.5 1t-0.5 -1q1 1 1 0.5t-1 -0.5zM271 257q0 1 0.5 1t-0.5 -1q1 1 1 0.5t-1 -0.5zM262 271q0 -1 -1 -1t1 1l-2 -1zM264 273q0 -1 -0.5 -1t0.5 1l-1 -1zM266 252v0v0zM264 248v2v-2v2v-2zM294 303q0 -1 -0.5 -1t0.5 1l-1 -1zM255 264v0v0zM255 265v0v0zM235 368v0h-1h1zM374 354v0v0zM235 220v0v0zM274 259v0v0zM274 259v0v0v0v0zM236 220v0v0zM273 259v0v0v0v0zM236 222v0v0zM271 257v0v0zM271 255v1v-1v1v-1zM269 255h1h-1h1h-1zM236 222h1h-1h1h-1zM269 254v1v-1v1v-1zM268 254h1h-1h1h-1zM237 222v1v-1v1v-1zM237 223h1h-1h1h-1zM267 252v0v0v0v0zM239 225h1h-1h1h-1zM303 314v-1v1v-1v1zM246 230v0v0zM244 230v0v0zM244 229v0v0v0v0zM243 229v0v0zM241 227h1h-1h1h-1zM241 227v0v0zM241 226v0v0v0v0zM240 226h1h-1h1h-1zM288 298v0v0zM289 299h-1h1h-1h1zM291 300q-1 0 -2 -1l2 1l-2 -1zM291 300v0v0zM291 300v0v0zM301 310v0v0zM292 302v0v0zM294 303v0v0zM294 305v-1v1v-1v1zM295 305v0v0zM296 306q0 -1 -1 -1l1 1l-1 -1zM296 306v0v0zM298 307q-1 0 -2 -1l2 1l-2 -1zM298 307v0v0zM299 309v-1v1v-1v1zM299 309v0v0zM301 310q-1 0 -1 -1l1 1l-1 -1zM275 261v0v0v0v0zM255 264h-1h1h-1h1zM278 264v0v0zM280 265v0v0zM257 266h-1h1h-1h1zM257 266v0v0zM258 268v0v0zM260 270v-1v1v-1v1zM262 271v0v0zM262 271v0v0zM264 273v0v0zM266 275q-1 -1 -2 -1l2 1l-2 -1zM266 275v0v0zM267 277v-1v1v-1v1zM267 277v0v0zM268 278v0v0zM303 313v0v0z" />
			<glyph glyph-name="lock" unicode="&#xe042;" horiz-adv-x="0" d="M367 284h-234q-3 0 -4.5 -1.5t-1.5 -4.5v-164q0 -3 1.5 -4.5t4.5 -1.5h234q3 0 4.5 1.5t1.5 4.5v164q0 3 -1.5 4.5t-4.5 1.5zM250.5 165q-12.5 0 -21.5 9t-9 21.5t9 21.5t21.5 9t21 -9t8.5 -21.5t-8.5 -21.5t-21 -9zM196 284v16q0 22 16 38t38.5 16t38 -16t15.5 -38v-16h35v16q0 37 -26 63t-63 26t-63 -26t-26 -63v-16h35z" />
			<glyph glyph-name="lua" unicode="&#xe043;" d="M228 101q-34 0 -63 17t-46 46t-17 63.5t17 64t47 46.5t64.5 16t63 -18t45 -46t16.5 -63t-17 -63t-46 -46t-64 -17zM281 318q-15 0 -26.5 -11t-11.5 -27t11 -27t27 -11t27 11t11 27t-11 27t-27 11zM355 318q-15 0 -26.5 11t-10.5 26.5t11.5 26t26 10.5t26.5 -11.5t11 -26.5t-11.5 -25.5t-26.5 -10.5z" />
			<glyph glyph-name="markdown" unicode="&#xe044;" d="M108 191v117h29l45 -44l44 44h28v-117h-28v76l-44 -44l-45 44v-76h-29zM313 308h44v-59h36l-58 -65l-59 65h37v59z" />
			<glyph glyph-name="mustache" unicode="&#xe045;" d="M120 263q0 7 -2.5 9t-6 1.5t-4.5 -3.5q-4 -6 -1 -11.5t10 -8.5q11 -2 16 4q17 12 25 21l16 13q10 8 19 11q34 11 55 -8l13 -13q2 3 5 6q15 18 40 18t45 -18l28 -24q7 -8 16 -10q6 -1 11.5 2t7.5 8.5t-2.5 10.5t-10 2t-3.5 -8v-2q-6 5 -6 13t10.5 11.5t19.5 -2t12 -17.5q3 -18 -3 -31t-26 -19q-28 -8 -65 6l-43 20q-30 13 -57 6q-16 -4 -36 -13q-33 -15 -41 -17q-29 -11 -54 -2q-31 11 -29 44q3 20 16 24q11 5 21 0q8 -4 9 -11t-5 -12v0z" />
			<glyph glyph-name="nginx" unicode="&#xe046;" horiz-adv-x="2450" d="M186 384l-8 -14l-59 -119l67 -131h137l64 144l-141 -1q-9 1 -16.5 -7.5t-7.5 -19.5t7.5 -19t16.5 -8h61l-15 -34h-78l-38 76l39 78h83l19 -44h49l-31 84l-7 15h-142z" />
			<glyph glyph-name="node" unicode="&#xe047;" horiz-adv-x="469" d="M236 393q6 3 12.5 3t11.5 -3l110 -62q5 -3 8 -8t3 -12v-124q0 -5 -3.5 -10.5t-8.5 -8.5l-109 -62q-6 -3 -12.5 -2.5t-12.5 3.5l-32 19q-6 3 -6 4.5t2 1.5q8 3 3 1q4 1 13 7q2 0 4 -1l28 -16h3l109 62q3 1 2 4v122q1 3 -2 4l-109 61q-2 1 -4 0l-109 -61q-2 -1 -2 -4v-122q0 -3 2 -4l29 -16q10 -6 18 -3q4 1 6.5 5t2.5 8v122q0 1 1 2t3 1h13q2 0 3 -1t1 -2v-123q0 -9 -4 -17t-12 -12t-19 -3.5t-20 4.5q-6 4 -16 9l-15 9q-6 3 -9.5 8.5t-3.5 10.5v124q0 7 3.5 12t8.5 8zM268 307q31 2 47 -7q8 -5 12.5 -13.5t5.5 -17.5q-1 -3 -4 -3h-14q-3 0 -3 4q-3 11 -11 15q-5 3 -13 3q-4 1 -14 1q-14 -1 -20 -5q-3 -3 -4 -7t0 -7.5t9 -5.5t28 -5t30 -6q15 -5 18 -15t1.5 -18.5t-7.5 -15.5q-8 -9 -24.5 -13t-37.5 -1.5t-32 12.5q-5 4 -8 11.5t-3 14.5q0 2 1 3h16q2 0 3 -1v-2q2 -10 8.5 -14t15.5 -6l16 -1l14 1q8 2 12 6q3 2 4.5 6t0 8t-9.5 7t-27.5 5t-30.5 5q-13 6 -17 16q-3 8 -1.5 17.5t7.5 15.5q11 11 32 13v0z" />
			<glyph glyph-name="node_modules_folder" unicode="&#xe048;" d="M380 327h-99l12 26h87v-26zM380 379h-113l-26 -52h-144v-206h309v258h-26zM349 224q4 2 7.5 2t6.5 -2l63 -35q3 -2 4.5 -4.5t1.5 -6.5v-71q0 -3 -2 -6t-5 -5l-62 -35q-3 -2 -7 -1.5t-7 1.5l-18 11q-4 2 -4 3t1 1q5 1 2 0q2 1 7 4h3l16 -9h1l62 35q2 0 2 2v70q0 1 -2 2l-62 35h-2l-62 -35q-1 -1 -1 -2v-70q0 -2 1 -2l16 -9q6 -4 11 -2q2 1 3.5 3t1.5 5v69q0 1 0.5 1.5t1.5 0.5h8q1 0 1.5 -0.5t0.5 -1.5v-70q0 -5 -2.5 -9.5t-7 -7t-10.5 -2t-12 2.5q-3 2 -9 5l-8 5q-4 2 -6 5t-2 6v71q0 4 2 6.5t5 4.5zM371 174q19 1 29 -5q5 -3 8 -8t3 -11q0 -2 -2 -2h-9q-2 0 -2 3q-2 7 -7 9q-3 2 -8 2q-2 1 -9 1q-8 -1 -12 -4q-2 -1 -2.5 -3.5t0 -5t5.5 -3.5t17.5 -3t18.5 -4q10 -3 12 -9.5t1 -11.5t-5 -10q-5 -5 -15.5 -7.5t-23.5 -1t-20 7.5q-3 2 -5 7t-2 9q0 2 1 2h10h2v-2q1 -6 5 -8.5t10 -3.5l10 -1l9 1q5 1 7 4q2 1 3 3.5t0 5t-6 4.5t-17.5 3t-18.5 3q-9 4 -11 10q-2 5 -1 11t5 10q7 7 20 8v0z" />
			<glyph glyph-name="node_modules_folder_open" unicode="&#xe049;" d="M385 359h-100l-23 -45h-126v-181h271v226h-22zM385 158h-224v133h224v-133zM385 314h-89l12 23h77v-23zM366 271h-271l41 -138h271zM349 224q4 2 7.5 2t6.5 -2l63 -35q3 -2 4.5 -4.5t1.5 -6.5v-71q0 -3 -2 -6t-5 -5l-62 -35q-3 -2 -7 -1.5t-7 1.5l-18 11q-4 2 -4 3t1 1q5 1 2 0q2 1 7 4h3l16 -9h1l62 35q2 0 2 2v70q0 1 -2 2l-62 35h-2l-62 -35q-1 -1 -1 -2v-70q0 -2 1 -2l16 -9q6 -4 11 -2q2 1 3.5 3t1.5 5v69q0 1 0.5 1.5t1.5 0.5h8q1 0 1.5 -0.5t0.5 -1.5v-70q0 -5 -2.5 -9.5t-7 -7t-10.5 -2t-12 2.5q-3 2 -9 5l-8 5q-4 2 -6 5t-2 6v71q0 4 2 6.5t5 4.5zM371 174q19 1 29 -5q5 -3 8 -8t3 -11q0 -2 -2 -2h-9q-2 0 -2 3q-2 7 -7 9q-3 2 -8 2q-2 1 -9 1q-8 -1 -12 -4q-2 -1 -2.5 -3.5t0 -5t5.5 -3.5t17.5 -3t18.5 -4q10 -3 12 -9.5t1 -11.5t-5 -10q-5 -5 -15.5 -7.5t-23.5 -1t-20 7.5q-3 2 -5 7t-2 9q0 2 1 2h10h2v-2q1 -6 5 -8.5t10 -3.5l10 -1l9 1q5 1 7 4q2 1 3 3.5t0 5t-6 4.5t-17.5 3t-18.5 3q-9 4 -11 10q-2 5 -1 11t5 10q7 7 20 8v0z" />
			<glyph glyph-name="npm" unicode="&#xe04a;" d="M276 237v-96l41 24v72l21 12v-72l20 12v96zM121 322l127 73l127 -73v-148l-127 -74l-127 74v148zM252 248l118 68l5 -137l-123 -74v143zM372 320l-1 -145l-123 -71l-1 142zM256 394q-4 3 -10 3t-10 -3l-113 -64q-4 -2 -7 -7.5t-3 -10.5v-129q0 -5 3 -10.5t7 -7.5l113 -64q4 -3 10 -3t10 3l113 64q4 2 7 7.5t3 10.5v129q0 5 -3 10t-7 8zM356 327q4 -3 4 -6.5t-4 -5.5l-98 -56q-5 -3 -11 -3t-10 3l-100 57q-4 2 -4 5.5t4 6.5l99 56q4 3 10 3t10 -3zM122 303q0 4 3 6t7 0l101 -58q4 -3 7 -8t3 -10v-115q0 -4 -3 -6t-7 0l-101 58q-4 3 -7 8t-3 10v115zM360 170q4 3 7 8t3 10v113q0 5 -3 6.5t-7 -0.5l-98 -56q-4 -3 -7 -8t-3 -10v-113q0 -5 3 -6.5t7 0.5z" />
			<glyph glyph-name="ocaml" unicode="&#xe04b;" d="M391 138v91v101q0 11 -2 17q-2 11 -14 21q-9 6 -14 6q-2 0 -2 2h-223q0 -4 -6 -4q-16 -5 -22 -23q-2 -3 -2 -9v-66q0 -3 0.5 -3.5t3.5 1.5l7 2q4 1 7 5q4 6 3 5q5 8 8.5 11t10.5 -1l9 -5q10 -3 15 -2q3 0 5 2l2 5q3 6 5 7.5t8 1t11 -5.5l9 -10q2 -4 5 -5.5t8 -7t13.5 -12t11.5 -9.5q8 -8 18 -11q7 -3 12 -2.5t10 7.5q9 12 12 25q1 2 3 5q6 9 4 6h1q8 1 20 -1q5 0 7 -2l9 -1l8 -4q9 -3 6 -14q-1 -3 -3 -3l-3 1h-4q-6 -2 -17 -7q-6 -3 -6 -7q-2 -9 -8 -14l-2 -1l-4 -5q-1 -3 -3 -3q-13 -14 -37 -16h-23q-3 0 -2.5 -3t0.5 -8.5t1 -8.5t1 -8q0 -9 7 -16q2 -1 2 -5q0 -9 1 -14q4 -14 6 -17.5t4 -1.5l9 2q7 3 24 3l17 1h16q9 0 17 -2l15 -3q9 -3 25 -3q5 0 5 6l-5 5v5zM173 178q1 0 1 1q3 13 10 20h-1q-14 0 -28.5 3.5t-21.5 10.5q-3 3 -7 2.5t-6 -5.5l-2 -5q-3 -9 -9 -14q-3 -6 -3 -11v-26q0 -5 4 -5.5t10 -1.5l21 -8q8 -3 13 -3t6 1t2 5l1 3h-1h1v3v-1l1 3q2 4 2 8.5t1 6.5v1q2 1 3 4q-1 -1 3 5v3zM244 150q-3 4 -6 11q0 4 -2 4q0 3 -2 11q-5 15 -17 25q-5 4 -8 4t-8 -5l-2 -4q-9 -14 -14 -23q-1 -4 -1 -3q-1 -2 -1 -5q-1 -1 -2 -3l-1 -5q-3 -2 -5 -8q1 4 -5 -8l-1 -2l1 -1h3q11 3 17 5q12 6 27 2q9 -4 21 -13q5 -3 13 -6h3v2z" />
			<glyph glyph-name="pdf" unicode="&#xe04c;" d="M113 145q2 10 14 22q5 5 12 9l15 9q10 5 32 15q3 0 3 2q18 37 25 55l12 31v2q-8 21 -10 35q-4 16 -2 36q2 10 12 20q2 2 8 2h12q5 0 7 -5q5 -4 12 -12l2 -9l1 -10q0 -17 -5 -51l-5 -16v-2q11 -20 34 -45q1 -2 3 -2q17 3 49 3q17 0 29 -5q9 -7 12 -12t3 -8v-11q0 -5 -5 -8l-4 -4q-4 -3 -8 -3l-10 -1q-32 -2 -64 19l-13 11q-19 -3 -28 -6l-39 -12q-10 -20 -25 -39q-12 -14 -26 -27q-8 -5 -17 -7h-12q-4 0 -7 2q-13 5 -15 17q-2 0 -2 5zM246 251q-8 -18 -15 -36l36 9zM311 212v0q13 -9 30 -14q5 -1 11 2q2 1 2.5 3.5t-1.5 3.5q0 2 -2 2.5t-6 0.5l-7 2q-14 2 -27 0zM169 170h-1h1q-13 -7 -26 -17q-4 -3 -10 -12v-3l2 -2l12 7q5 5 11 13q47 57 11 14zM234 322v0h1h-1q4 13 4 25q0 10 -2 14q0 2 -2 2l-3 -2q-3 -4 -3 -15q0 -7 1 -12q2 -2 3 -5q3 -9 2 -7z" />
			<glyph glyph-name="perl" unicode="&#xe04d;" d="M209 111h-21l3 11q7 3 9 7t2 10q0 20 0 11v87l-21 3q-12 2 -18 4q-22 15 -29 38t4 49q7 16 -10 18q-2 0 -11 3v2l24 14q0 1 4.5 1.5t6.5 2.5q17 7 23.5 5.5t15.5 -18.5q10 -20 -1 -41q-4 -7 -5 -12q-1 -7 6 -9l28 39q17 21 32 34q19 16 42 23h10q2 -4 12 -14q7 -8 10 -14q7 -13 21 -40q13 -24 21.5 -36.5t7 -33t-11.5 -29.5v50h-5q-7 -9 -7 -19q-1 -8 0 -20q1 -17 1 -22l-1 -104h-10l-1 5q0 4 1 6q8 65 -16 129q-17 -14 -20 -42q-1 -13 -9 -38l-6 -10q-3 -6 -2.5 -11.5t6.5 -10.5q1 -1 0 -6.5t-1 -9.5l-11 15v-4l-32 -7l-1 5q6 3 8 6q21 12 5 26q-28 22 -16 52q2 4 3 10v14q14 9 -13 -6q-6 -4 -7 -6q-5 -20 -11 -65q-3 -12 -4 -27zM275 164q15 19 17 39t-9 34l-26 -52z" />
			<glyph glyph-name="photoshop" unicode="&#xe04e;" d="M381 375v6h-268v-268h261q4 0 5.5 1.5t1.5 5.5v255zM224 231q-9 -2 -18 -3l-18 -2v-53h-27q-1 0 -2 2t-1 5v141q0 1 8 2t14 1q27 0 39 -1q18 -3 28.5 -14t11.5 -29t-8.5 -31.5t-26.5 -17.5zM338 200q-2 -19 -21 -26q-25 -10 -54 2q-1 0 -2 1t-1 3l5 16q5 0 16 -3l13 -3q5 -1 8.5 1.5t5.5 8.5q2 8 -9 14q-3 2 -15 6q-25 11 -22 34q1 10 8.5 18t19.5 10q19 5 39 -2q1 0 2.5 -2.5t-0.5 -4.5l-3 -15l-22 4q-7 0 -10 -2q-5 -1 -6 -7t3 -9q1 -2 5 -3l6 -3q2 -2 7 -3l9 -4q18 -7 18 -31zM215 299q-2 0 -27 3v-51q12 -1 18 -0.5t13 3.5q12 5 12 22.5t-16 22.5z" />
			<glyph glyph-name="php" unicode="&#xe04f;" d="M204 198q-2 14 -14 18l-10 5q-8 3 -11.5 5t-8.5 -3q-2 -4 2 -7q1 -3 4 -7l11 -11l4 -7q1 -3 0 -7q-1 -16 -12 -27q-1 -1 -2 -1h-1q-8 0 -13.5 6t2.5 11q2 0 2 3q5 5 3 10l-3 5l-20 16q-26 21 -28 51q-2 34 16 65q8 13 18 18q6 3 17 6q29 8 50 4q24 -4 29 -24q6 -17 4 -29q-1 -14 -11.5 -26t-24.5 -16q-6 -3 -9.5 -1.5t-7.5 6.5q-9 13 -10 16l-1 4q2 -16 6.5 -23.5t11.5 -7.5q27 -2 43.5 19t12.5 54q0 2 -3 11q0 5 2.5 5.5t2.5 1.5q25 5 44 3q29 -3 48 -16q33 -20 44 -61q1 -4 1 -11q0 -4 -4 -2q-2 1 -4 4l-6 7q-1 1 -2 1t-1 -1l-2 -4q-7 -24 -19 -37q-3 -3 -3 -5v-9q-1 -5 0 -9l4 -35q1 -5 -0.5 -8t-6.5 -4q-8 -4 -14 -4h-23q0 9 -1 12q-1 7 -6 10l4 19q2 7 -2 13t-12 3q-16 -9 -36 -2q-9 1 -12 -5q-5 -9 -5 -17t3 -22q0 -4 -0.5 -5.5t-4.5 -1.5q-13 -5 -28 -2h-1q0 9 -1 12q-2 6 -9 9q7 7 4 25v0zM146 230q3 3 3.5 6t-2 7.5t-5.5 5.5t-6 -2l-11 -12l-2 -4q-1 -2 0 -3.5t3 -1.5q4 0 6 -2q8 0 14 6v0zM146 277q0 3 -2 4.5t-4 1.5t-4 -2t-1.5 -5t2.5 -4.5t5 -1.5q4 4 4 7v0z" />
			<glyph glyph-name="powershell" unicode="&#xe050;" horiz-adv-x="0" d="M159 354q-5 -3 -6.5 -6t-24 -99t-22.5 -101q0 -4 4 -8l5 -1h149q56 0 66.5 0.5t14 2.5t5.5 7t15 64l21 93q9 34 9 38.5t-3 7.5t-5 4t-3 1h-111h-110zM207 341l7 4q6 3 17 -6l57 -61q6 -7 7.5 -9.5t1.5 -5.5q0 -5 -1.5 -7.5t-53.5 -40t-56.5 -40t-11 1t-7.5 9.5q-1 4 1.5 7.5t12.5 12.5q8 6 36 25l46 34l-60 63v7zM329 196q3 -3 3 -8.5t-3 -8.5l-4 -3h-32h-26.5t-8.5 1q-4 4 -4 10.5t4 9.5q2 2 7.5 2h27.5h32z" />
			<glyph glyph-name="project" unicode="&#xe051;" d="M141 144h110v-28h-110v28zM271 260h98v-29h-98v29zM114 387h101v-29h-101v29zM174 260h76v-29h-76v29zM174 201h94v-29h-94v29zM340 201h49v-29h-49v29zM141 323h110v-29h-110v29zM290 201h30v-29h-30v29z" />
			<glyph glyph-name="pug" unicode="&#xe052;" d="M334 194q0 -4 -3 -12q-5 -10 -14 -15.5t-22 -3.5l-9 3q-12 3 -20 15v0q-5 -15 -11 -22v-2q-6 -2 -7 -5h-2q-11 -7 -23 -4.5t-21 13.5v3q-4 7 -5.5 15.5t-1.5 22.5q0 3 2.5 10t2.5 8v0q1 1 2 1q6 15 16 25l2 2q2 2 2 4h2v0v2q7 7 16 7l13 2q11 3 18 2q4 0 6 -2v0q16 -3 29 -15l3 -2l3 -1l1 -4l4 -3q2 -2 2.5 -3.5t3.5 -3.5t3 -1v-3q5 -12 6 -16q3 -9 2 -17zM233 236q-2 -3 0 -6q2 -8 10.5 -12.5t9.5 -5.5q6 -6 8 -15l5 -11v4l-2 12q0 7 1 10.5t5 7.5q7 9 7 19q0 4 -4 6q-1 2 -6 5q-15 2 -26 -5q-6 -2 -8 -9zM230 160q5 0 5 3t-3.5 3t-3.5 -3t2 -3zM312 192q4 0 4 2.5t-3.5 2.5t-3.5 -2.5t3 -2.5zM240 183q-5 0 -5 -3t3.5 -3t4 2.5t0 3t-2.5 0.5zM306 182q-2 0 -3.5 -1t-1.5 -2.5t3.5 -1.5t4 2.5t-2.5 2.5zM217 171q3 0 3 3v3q-2 1 -5 0q-1 0 -1.5 -1t-0.5 -2q0 -3 4 -3zM288 190q5 0 5 2t-1 2.5t-2 -0.5q-4 0 -4 -2t1 -2.5t1 0.5zM186 321q2 0 5 1l4 3q7 2 24 11h1v-3q4 0 4 1q9 6 11 7l5 2l-5 -6l13 6h12q-3 -2 -5 -3q5 1 12 0h10q5 0 7 -2h2q4 -6 12 -12l12 -12q9 -6 11 -9h-4q-13 5 -24 3q-9 -2 -20 -9q2 1 -9 -8q-5 -5 -9 -7q-12 -7 -25.5 -5t-21.5 5q-13 3 -20 1q-15 -1 -23 -15l-1 -2h-2v0q1 1 2 1q13 30 10 22q6 14 7 23q0 2 2 4zM213 298q13 -8 30 -2t23 16q-10 -7 -25 -12q-10 -2 -28 -2zM222 310q7 -4 16.5 -1t12.5 9q-9 -6 -14.5 -7t-14.5 -1zM181 316q-2 -11 -9 -27q1 3 -12 -26q0 -2 -2 -4v-2h-1q-3 -5 -6 -12l-13 -25q3 5 -5 -7q-2 -4 -5 -7q-6 -7 -10 2q-6 17 -3 33q0 18 1 27q0 12 -1 19q-2 4 2 11q2 3 5 5l5 4q6 4 16 7l17 5q10 4 13 6q6 1 7 -0.5t1 -8.5v0zM328 299q-5 6 -13 11q-17 14 -16 14q-9 8 -15 16h-1v2l-2 3q-3 6 3 6h4q6 0 17 1.5t16 1.5h11q7 0 12 -0.5t8 -3t4.5 -10t6.5 -14.5l18 -36q3 -5 6 -21q0 -4 -1.5 -5t-5.5 0t-12 6l-3 2v1l-21 15h-1l-6 5l-6 3l-3 3h1h-1zM144 239q6 10 11 20v-2q-3 -11 -1 -25q2 -18 15 -27q9 -7 17 -6l7 2q-1 -13 2 -24l5 -14q-3 0 -5 1q-8 5 -4 3q-34 20 -42 60zM334 296l16 -12v0v0q0 -5 2 -11q3 -16 3 -25q-2 -31 -19 -51v-1l-1 -1q1 9 -2 17q-2 7 -7 16v2q0 2 2 2q7 0 13 5q10 13 7 31q-1 14 -12 27h-3q-1 0 1 1zM286 166l4 -2l5 -1q-7 -18 -23 -20.5t-26 9.5q2 3 7 5q6 -7 15 -9h5q5 2 9 7.5t4 10.5zM288 349v-1l-2 1q-4 0 -4 -6l1 -3q-4 0 -6 1l1 3q1 2 1 3.5t3 1.5l4 1q2 0 2 -1zM181 318v0q0 5 -1 6.5t-5 0.5q1 1 3.5 1t2.5 -1q3 -3 5 -4zM200 164v0v-1v1zM334 296v-1l1 -1q10 -13 12 -28t-8 -30q-3 -6 -13 -6h-2l-5 5q-1 1 -4 3l-4 4q-1 2 -1 3t3 1q7 3 12.5 10.5t4.5 15.5q-1 11 -9 17.5t-20 6.5t-20 -10t-6 -21q-4 0 -5 1q-7 2 -18 -1l-14 -2q-8 -3 -14 -8l-2 -1q-3 12 -14 17t-22 1q-9 -4 -13.5 -11t-3.5 -16t6.5 -15t13.5 -9q2 -1 5 -1l5 1q0 -4 -3 -7q-3 -8 -3 -10l-7 -2q-8 -1 -17.5 6.5t-14.5 26.5q-2 11 3 24v4q3 7 5 9h1q1 0 1 1v1h1l1 3q12 12 23 15q7 2 21 -2q5 -1 21 -5q14 -2 25 5q4 3 10 8q11 9 9 7q11 9 19 11q11 1 25 -4l5 -1q1 -6 4 -9l6 -6q-2 0 -2 0.5t2 -0.5l-1 1zM233 236q0 -13 16 -16q7 -1 13.5 3.5t8.5 11.5q1 1 1 5l-1 5q2 -2 2 -6q3 -10 -6 -19q-3 -4 -3.5 -7.5t-0.5 -10.5l2 -14q0 -1 -1 -2q-3 8 -4 11q2 -5 -4 8q-1 4 -3 6t-6 3l-5 3q-7 5 -11 13q0 5 2 6zM230 160q-2 0 -2 2t1 3t3.5 1t2.5 -2.5t-1.5 -3t-3.5 -0.5zM312 192q-3 0 -3 1.5t1.5 2.5t3.5 1t2 -3q1 -1 -0.5 -1.5t-3.5 -0.5zM240 183q2 0 2 -1.5t-1 -3t-3.5 -1.5t-2.5 2.5t2 3t3 0.5zM306 182q3 0 3 -2t-1.5 -2.5t-3.5 -0.5t-2 2q-1 1 0.5 2t3.5 1zM217 171q-4 0 -4 1t1 2l1 1q2 2 5 0q2 0 2 -1t-1 -2t-4 -1zM288 190q-2 0 -2 2.5t3.5 2.5t3.5 -1t-1 -2.5t-4 -1.5zM162 270v-1v1q-1 -1 -0.5 -1t0.5 1zM162 270v0v0zM157 259v-1v1q-2 -1 -2 -0.5t2 0.5zM321 305v0v0zM332 298v-1v1zM323 305h-1h1h-1h1zM350 284v0v0z" />
			<glyph glyph-name="puppet" unicode="&#xe053;" d="M109 227q2 10 4 19q14 46 65 74q22 10 30 11l2 -1q-11 -13 -11 -38q0 -5 -3 -7l-24 -11q-20 -11 -31 -30.5t-11.5 -43.5t10.5 -44q8 -14 17 -24q4 -4 0 -6q-5 -5 -7 -5t-7 5q-9 9 -16 21q-5 9 -11 25l-5 21q-2 11 -2 34zM392 203q-2 -1 -2 -3v-4q-15 -40 -49.5 -62.5t-72.5 -18.5q-45 3 -85 39q18 -1 39 12q4 2 7 0q18 -15 34 -19q51 -15 90 21q15 14 25 43q1 4 2.5 5t3.5 -0.5t6 -1.5q2 -4 2 -11zM249 384q4 -2 12 -3t11 -3q72 -27 81 -106q1 -20 -4 -47q-9 19 -30 28q-2 1 -2.5 3t0.5 4q2 19 0 37q-4 32 -33 53q-31 26 -82 14h-3q-1 -1 -1.5 -0.5t-0.5 2t-1.5 4.5t-1 4t3.5 2.5t10 3.5l10 2q8 2 31 2zM204 200q0 -11 -8.5 -19.5t-20.5 -8.5t-20.5 8.5t-8.5 19.5t8 19.5t20.5 8.5t21 -8.5t8.5 -19.5zM277 317q0 -11 -8 -19.5t-20 -8.5t-21 8.5t-9 20t8.5 19.5t20 8t20 -8t9.5 -20zM339 196q0 -12 -8.5 -20t-20.5 -8t-20 8t-8 19.5t8 20t20.5 8.5t21 -8.5t7.5 -19.5zM206 331h2h-2h2h-2h2h-2z" />
			<glyph glyph-name="python" unicode="&#xe054;" d="M245 258h-32l-27 -10q-27 -10 -11 -27v-29q0 -5 -4 -5h-15q-22 0 -32 20q-8 16 -8 29q-3 32 5 53q8 25 30 29h94q5 0 5 2v8l-5 2h-55q-6 0 -6 6v21q0 18 14 23q16 6 24 8q31 5 58 -2q14 -3 23 -10q12 -11 10 -22v-58q0 -17 -9.5 -26.5t-26.5 -9.5q-11 -2 -32 -2v0zM200 355q0 -5 3.5 -9t8.5 -4t9.5 4.5t4.5 9t-4 8t-9.5 4t-9 -3t-3.5 -9.5zM258 242h33l26 11q27 10 10 26v30q0 4 5 4h15q22 0 32 -19q8 -16 8 -29q3 -32 -5 -53q-8 -25 -30 -29h-94q-5 0 -5 -2v-8l5 -2h55q6 0 6 -6v-21q0 -18 -14 -23q-16 -6 -25 -8q-31 -5 -58 2q-13 2 -22 9q-12 12 -10 23v58q0 17 9.5 26.5t26.5 9.5q11 1 32 1v0zM303 145q0 6 -3.5 9.5t-9 3.5t-9.5 -4t-4 -8.5t4 -8t9.5 -4t9 3t3.5 8.5z" />
			<glyph glyph-name="r" unicode="&#xe055;" horiz-adv-x="0" d="M271 194q-29 0 -54 9t-39.5 23.5t-14.5 32t13 32t36 23.5q24 9 53 9q36 0 61 -9q23 -8 35 -23q12 -14 12 -32t-12.5 -32.5t-34.5 -23.5q-24 -9 -55 -9zM248 358q-38 0 -70.5 -12.5t-50.5 -33.5q-20 -22 -20 -48q0 -24 19 -45t51 -33q33 -13 70.5 -13t69.5 12t51 32q20 22 20 47.5t-20 47.5q-19 21 -51 33.5t-69 12.5zM223 301v-155h47v60q-13 0 8 1q4 0 7 -1t5.5 -3.5t5.5 -7.5q8 -13 18 -32l8 -17h56l-18 29q-18 30 -20 31q-2 3 -6 4q-2 2 -6 3l-8 2q32 5 39 26q4 11 3 23q-1 13 -9 21t-16 12q-10 4 -26 4h-88zM270 268h31q5 0 9 -4t4 -9.5t-4 -10t-9 -4.5h-31v28z" />
			<glyph glyph-name="rails" unicode="&#xe056;" d="M388 340q-14 15 -41 27t-54 7q-32 -5 -52 -21q-25 -17 -39 -40l-17 -31q-14 -28 -23 -51q-9 -28 -15 -60q-3 -29 -3 -44v-8h134q-13 36 -16 53q-3 13 -6 39v26q0 19 6 32q14 44 58 67q20 8 35.5 6t29.5 -13l3 11h1h-1zM118 189q0 -5 -1 -13l-2 -13l24 -3l5 25q-19 4 -26 4v0zM167 264q-16 7 -23 10l-8 -21l24 -8q4 13 7 19v0zM291 163v1v-1q-8 1 -21 1h-1l4 -17q0 -1 1 -2l25 -2v2q-2 9 -8 18v0zM206 329q-9 6 -18 11q-10 -9 -15 -16l10 -6l8 -7zM262 210v0q12 -5 19 -10h2v1q0 10 -2 15v1q0 1 -1 1l-18 9h-2q2 -6 2 -17v0zM257 369q-5 7 -11 13h-2l-14 -8q1 -3 4 -7l5 -7zM264 260q9 -8 17 -15v0q4 10 4 16v2l-13 11q-5 -5 -8 -14zM311 378v0l-2 11q0 1 -2 1h-19l3 -14q7 2 20 2v0zM299 298v2q-6 10 -9 13v2q-7 -7 -12 -10l15 -16q3 3 6 9v0zM325 334q-7 -2 -14 -3l6 -13q3 3 10 6v0q0 3 -1 6zM357 366q2 -1 6.5 -3.5t6.5 -4.5l4 5l-17 11v-8v1v-1zM367 334l-10 2h-3v-9l13 -1q2 6 0 8h1h-1z" />
			<glyph glyph-name="react" unicode="&#xe057;" d="M337 198q4 -31 4 -45.5t-7 -23.5t-18 -11t-24 4q-8 4 -21 12l-21 14q-15 -12 -23 -17.5t-15 -7.5q-19 -9 -33.5 0t-15.5 30q0 16 3 47q-18 7 -27 12q-11 5 -23 17q-10 10 -9.5 21.5t10.5 21.5q8 9 21 15q7 4 23 10l6 1l-4 32q0 10 3 28q2 12 12 17t24 2q20 -5 42 -25q2 -1 4.5 -3.5t1.5 -1.5q23 17 37 24q14 10 29 6q11 -2 17 -11t8 -24v-23q0 -5 -2 -11l-2 -13q12 -4 24 -10t17 -10q9 -5 14 -13q11 -17 0 -33q-5 -7 -14 -13q-5 -4 -17 -9q-9 -2 -24 -9zM253 200l18 2q6 0 10 5q14 24 20 38q1 1 1 4t-1 4q-7 13 -21 37q-3 3 -8 3q-25 0 -38 2q-11 0 -17 -9.5t-9 -14.5q1 2 -9 -17q-3 -4 -3 -6.5t3 -8.5q10 -17 9 -15q16 -26 9 -16q4 -4 6.5 -5.5t10.5 -1.5q20 -1 19 -1zM168 212q9 23 13 33v7l-13 33q-26 -8 -40 -19q-10 -8 -10 -17t10 -16q7 -8 19 -14q7 -3 21 -7zM333 286q-5 -13 -15 -36v-2v-1l15 -38l21 10l19 10q11 8 11 18t-11 17q-7 7 -19 12zM177 301q24 2 37 6q1 0 1 1l1 1q8 11 24 29q-24 20 -38 26q-25 9 -29 -17q-1 -10 0 -23q1 -6 4 -23zM323 301l2 6q3 14 3 22q0 13 -3 23q-3 7 -8 11t-11 3q-13 -3 -25 -11q-6 -4 -20 -17q7 -10 21 -28l5 -5zM177 196q-4 -23 -4 -24q-2 -12 1 -23t10 -15t18 -1t22 11q3 3 18 16q-9 11 -24 28q-3 3 -4 3q-18 0 -37 5zM259 160q6 -9 17.5 -17t20.5 -11q23 -8 28 16q2 11 1 23l-4 24l-26 -3q-7 -2 -11.5 -3.5t-7.5 -5t-6 -8.5l-6 -8q-2 -3 -6 -7zM268 309l-18 20q-12 -15 -17 -20h35zM268 188h-34l18 -19l7 10q10 11 9 9zM208 203l-9 15l-9 16l-9 -25q8 -3 27 -6zM310 234l-18 -31l26 4q0 10 -8 27zM190 264q9 15 18 29l-27 -3q6 -21 9 -26zM292 293q3 -5 9 -13.5t9 -15.5q6 18 8 26q-10 0 -26 3z" />
			<glyph glyph-name="ruby" unicode="&#xe058;" d="M124 245q2 4 3.5 11t5.5 14q8 17 18.5 31.5t23 26.5t28 22t32.5 17q6 3 14 4t15 1q9 0 15 -5.5t6 -15.5q1 -4 0.5 -9t-2.5 -10q-8 -22 -19.5 -40t-26.5 -33t-33.5 -26t-40.5 -20q-1 0 -3 -0.5t-4 -0.5q-15 -2 -23.5 6.5t-8.5 26.5v0zM275 288q24 2 47.5 3.5t48.5 3.5l-3 3t-3 2q-21 17 -42.5 34t-42.5 35q-2 1 -4 4l-4 6q9 0 16.5 0.5t15.5 -0.5q9 0 17.5 0.5t17.5 -1.5q19 -3 29 -15t9 -31q0 -18 -1.5 -35.5t-3.5 -35.5q-1 -28 -3.5 -55t-4.5 -54q0 -5 -0.5 -10t-1.5 -11q-9 9 -18.5 17.5t-19.5 17.5q-1 1 -2.5 2t-2.5 2q-11 8 -17 18.5t-8 23.5q-4 17 -8.5 34t-8.5 34q-1 2 -1.5 4t-0.5 4v0zM155 149q6 1 10.5 1.5t9.5 1.5q2 0 3.5 2t2.5 4q4 13 8 27l8 28q0 1 1 2t1 3l50 -16l50 -16q-13 -13 -27.5 -24.5t-29.5 -21.5l56 -4t56 -5v-0.5v-0.5q-6 -1 -12 -1t-12 -1l-36 -2t-35.5 -2.5t-35.5 -2.5l-36 -2q-5 -1 -11 -1h-11q-24 0 -37 13t-14 37q0 13 1 26.5t2 27.5q0 1 1 2l2 2q1 -1 2.5 -2t2.5 -2l14 -34t14 -33l1.5 -3t0.5 -3v0z" />
			<glyph glyph-name="rust" unicode="&#xe059;" d="M328 357v-7v-2l2 -1h1l13 3q2 1 3.5 -0.5t0.5 -3.5l-3 -13v-1l1 -2q0 -1 4 -1h12q4 0 4 -4v-3l-3 -6q-3 -6 -2 -5v-3q1 -1 1 -2h1l13 -2q2 0 3 -2.5t0 -4.5l-7 -10v-3q0 -1 1 -1l2 -2l11 -4q2 -1 3 -3t-2 -4q-5 -5 -10 -9v-4h1q1 -1 2 -1l4 -2q4 -3 6 -4t2 -3t-2 -4l-11 -7v-1q0 -3 1 -4l9 -8q1 -2 1 -3.5t-3 -2.5q-8 -3 -11 -4v0q-1 -1 -1 -2v0q-1 -1 -1 -2l1 -2l7 -10q1 -1 0.5 -2.5t-2 -2t-3.5 -2.5l-13 -2l-1 -2q0 -2 1 -3l5 -9q2 -3 -1 -6h-18v-5l2 -11q1 -2 -0.5 -3.5t-5.5 -1.5l-12 2h-2l-2 -1q0 -1 1 -1v-13q0 -4 -4 -4h-3q-6 2 -11 5h-2q-2 0 -2 -2l-2 -11q0 -3 -2 -4t-5 1l-9 7h-2q-3 0 -3 -4l-4 -10q-1 -4 -5 -4v1v1q-6 5 -9 10h-3q-2 0 -2 -3l-6 -9q-1 -3 -3.5 -3t-3.5 3l-7 11h-3q-2 0 -3 -2l-8 -9h-6q-1 0 -1 2l-4 13q-1 1 -2 1h-5q0 -2 -9 -7l-7 4q-3 1 -3 3q-1 4 -1 13v0q0 1 -1 1l-4 2q-1 0 -2 -2l-10 -4q-2 -1 -4 0t-2 3v15l-1 2h-2l-12 -3q-2 -1 -3.5 0.5t-0.5 3.5l3 13v1l-2 1h-14q-4 0 -4 4v3q0 3 3 6q3 6 3 5v3l-1 2l-15 1q-2 0 -2.5 2.5t-0.5 4.5q5 5 7 10v2q0 1 -1 2l-1 1q-1 1 -2 1l-10 4q-2 1 -2.5 3t1.5 3t6 5l5 4v3q0 3 -2 3l-9 5q-2 1 -2 4t2 3l11 7v4l-10 9v3v3h1v1l13 5v1q1 0 1 2l-1 2l-7 9q0 1 0.5 3.5t2.5 2.5l14 3l2 3q0 1 -2 3l-4 10q-1 1 -0.5 3t3.5 2h15l1 1q0 1 1 1v1q-3 8 -3 13q-1 2 0.5 3.5t4.5 1t11 -3.5h2l2 2q0 1 -1 1v13q0 3 4 3h3l6 -2q6 -3 5 -3h3l2 2l1 14q0 2 2.5 2.5t4.5 -0.5q5 -4 10 -6h2l2 1v1l2 2l3 9q2 3 7 3l1 -1q0 -2 4 -6l4 -5h2l2 1v0l6 10q4 4 7 1l1 -1l7 -11h5l1 1l7 8q1 1 3 1t2 -1v-1l5 -11l2 -1h2q6 1 11 6q2 1 4.5 0.5t2.5 -2.5l2 -14h3q1 -2 1.5 -2t0.5 2l12 3q2 2 3.5 1t1.5 -4v-6zM172 320v0h107q9 0 12 -2q14 -5 20.5 -12.5t6.5 -16.5t-4 -16.5t-11 -12.5q-3 -3 -4 -3l9 -7q2 -3 3 -5q5 -6 5 -14q0 -2 2.5 -4.5t11.5 -2.5q4 0 6 2t3 5l2 4v7q0 1 2 1h9v18l-18 9q-7 3 -4 11l9 21v2q-11 16 -19 23q-21 19 -50 26h-2l-14 -13q-3 -2 -6.5 -2t-4.5 2l-13 13h-1q-6 -1 -14 -5q-23 -8 -40 -25zM331 190h-1h-41q-5 0 -5 2q-8 3 -10.5 14t-2.5 14.5t-3 8.5q-4 11 -16 11h-25v-18h25q2 0 2 -1v-28q0 -1 -2 -1h-84l9 -11h1q12 3 17 3q3 2 6 0t4 -5l4 -18v-2q22 -8 34 -8q9 -2 29 1q7 2 21 7v2l4 18q3 8 10 5l18 -3q0 3 6 9zM165 288v0l4 -10v-3l-2 -2l-2 -3q-12 -5 -18 -7h-1v-9q0 -14 4 -30l1 -1q0 -1 1 -1h29v66h-16zM225 268v0v0h32q6 0 8 2l5 4q2 6 -2 10t-10 4h-35q2 -7 2 -20zM140 283q0 -3 2.5 -6t6 -3t6 3t2.5 6t-2.5 5.5t-6 2.5t-6 -2.5t-2.5 -5.5zM318 165q0 3 -2.5 6t-5.5 3t-5.5 -3t-2.5 -6.5t2.5 -6t5.5 -2.5t5.5 2.5t2.5 6.5zM186 174q-2 0 -5 -3t-3 -6.5t3 -6t6 -2.5t5.5 2.5t2.5 6t-2.5 6.5t-6.5 3zM257 357q0 3 -2.5 6t-6.5 3t-6 -2.5t-2 -6.5t2 -6.5t7 -2.5t8 9zM348 273q3 0 6 2.5t3 6t-3 6t-6.5 2.5t-6 -2.5t-2.5 -6t2.5 -6t6.5 -2.5z" />
			<glyph glyph-name="sass" unicode="&#xe05a;" d="M277 231q-26 -15 -50 -31q8 -18 1 -39q-5 -17 -17 -26.5t-29 -11.5q-6 -2 -16 1q-7 2 -10 10q-9 19 5 34l9 10q5 5 9 8l13 8l18 11l-4 3q-2 2 -4 2q-19 13 -32 26q-12 12 -16 19q-10 7 -12 17t4 20q7 17 26 37q33 28 78 44q32 11 60 7l20 -7q17 -7 22.5 -19.5t0.5 -29.5q-9 -30 -34 -44q-36 -23 -74 -16q-11 1 -23 12l-4 8v1q0 1 1 2h1l2 -2q15 -15 37 -10q42 7 63 31q10 14 14 26q4 17 -13 27q-14 6 -34 3q-39 -5 -79 -30q-21 -12 -32 -27q-5 -6 -10 -17q-7 -19 5 -31t18 -17l27 -23h4q6 5 12 6q22 12 40 16q0 -4 1 -5l2 -3v2v-2zM215 196q-20 -11 -33 -24q-8 -8 -10 -19q-1 -7 2.5 -10t10.5 -1q16 3 25 18q6 8 7 16t-2 20v0z" />
			<glyph glyph-name="sbt" unicode="&#xe05b;" d="M388 238q0 -5 -3 -18h-180q-17 0 -17 -18q0 -15 19 -15h166q-33 -63 -104 -71q-35 -5 -67.5 9t-55 40.5t-29 61t5.5 68t37 57.5t60 32q41 11 83.5 -6t64.5 -56h-10h-89q-7 0 -11.5 -5t-4.5 -12q0 -14 15 -14h114q4 -11 4 -22h-148q-18 0 -18 -15.5t18 -15.5h138q6 3 12 0z" />
			<glyph glyph-name="scala" unicode="&#xe05c;" d="M339 398v-68l-2 -2q0 -1 -1 -1q-7 -7 -18 -10.5t-45 -10.5q-29 -6 -76 -12q-25 -3 -38 -6v68q2 1 6 1q37 7 61 8q57 9 46 8q26 4 44 10q10 4 13 6q7 3 10 9zM339 307v-67l-3 -3q-7 -5 -26 -13q-26 -6 -39 -8l-47 -8q4 1 -32 -4q-19 -3 -33 -6v67q2 2 5 2l81 11q37 6 70 15q17 6 24 14zM161 108h-2v68q2 1 5 1l55 9q50 7 48 7q26 4 45.5 10.5t26.5 14.5v-68q-1 -2 -4 -4l-4 -4q-12 -6 -31 -11q-16 -4 -59 -11t-63 -9q-5 0 -17 -3z" />
			<glyph glyph-name="settings" unicode="&#xe05d;" d="M186 377q-11 0 -20 -8t-10 -19v-30q1 -11 10 -19t20.5 -8t20.5 8t10 19v30q-1 11 -10 19t-21 8zM118 339v-8q0 -5 3 -8t7 -3h19v30h-19q-4 0 -7 -3t-3 -8zM368 350h-141v-30h141q5 0 8 3t3 8v8q0 5 -3 8t-8 3zM311 292q-13 0 -21.5 -8t-9.5 -20v-29q1 -12 9.5 -20t20.5 -8t21 8t10 20v29q-1 12 -10 20t-20 8zM118 254v-9q0 -4 3 -7t7 -3h142v29h-142q-4 0 -7 -3t-3 -7zM368 264h-19v-29h19q5 0 8 3t3 7v9q0 4 -3 7t-8 3zM234 206q-12 0 -20.5 -8t-10.5 -19v-29q2 -12 10.5 -20t20.5 -8t20.5 8t9.5 20v29q-1 11 -9.5 19t-20.5 8zM368 179h-95v-29h95q5 0 8 2.5t3 7.5v9q0 4 -3 7t-8 3zM118 169v-9q0 -5 3 -7.5t7 -2.5h67v29h-67q-4 0 -7 -3t-3 -7z" />
			<glyph glyph-name="shell" unicode="&#xe05e;" d="M117 121h266v262h-266v-262zM213 205h113v-19h-113v19zM154 221l32 32l-32 33l16 16l48 -49l-48 -48z" />
			<glyph glyph-name="slim" unicode="&#xe05f;" d="M119 147v184l2 2q5 19 18 26l18 9h184l2 -2q20 -6 30 -23q2 -8 6 -11v-183l-1 -4q-5 -16 -18 -26q-9 -6 -19 -8h-184l-3 1q-19 6 -30 25q-2 1 -5 10zM159 298q3 -3 19 -24q12 -15 19 -22q3 -3 5 -3h93l5 1l20 24q10 14 18 22q-21 26 -54.5 36t-67.5 0.5t-57 -34.5zM282 320q-4 -10 -8 -30.5t-8 -29.5h-26q10 13 22 30q130 188 20 30v0z" />
			<glyph glyph-name="smarty" unicode="&#xe060;" d="M249 203h-26q-7 0 -9 1t-3 7q-5 29 -18 54q-7 11 -13 28q-8 21 -4 43q2 16 10.5 27t22.5 17q44 20 86 -1q19 -9 27 -27.5t4 -40.5q-1 -14 -7 -26l-11 -26q-14 -26 -17 -47q-2 -7 -4 -9t-11 -2q-9 2 -27 2zM249 109h-31q-4 0 -6 1.5t-2 5.5v13q1 2 3.5 2.5t12.5 0.5h54q5 0 6.5 -1.5t1.5 -6.5q0 -10 -2 -12t-11 -2q-8 -1 -26 -1zM249 155h-31q-4 0 -5.5 1.5t-1.5 5.5v10q1 3 3 3.5t12 0.5h54q8 0 8 -7v-11q-1 -2 -4 -3h-35z" />
			<glyph glyph-name="sql" unicode="&#xe061;" horiz-adv-x="525" d="M374 172q-24 0 -39 -6l-3 -1q-2 0 -3 -1l-2 -3l2 -3l1 -3q5 -8 11 -13l12 -8q4 -3 12.5 -6.5t12.5 -6.5l19 -14v1l-2 3q-1 2 -1 3l-6 6q-9 11 -21 20l-8 4l-9 6q-5 4 -6 7l14 4q3 1 9.5 1.5t10.5 1.5l9 3v2q-2 1 -5 5l-5 6q-17 15 -33 25q-3 2 -10 5l-10 5l-5 1l-3 2q-2 3 -4 8q-7 14 -4 7l-26 57q-15 25 -33 42t-44 32q-5 3 -12 5l-13 3l-15 1l-5 3l-4 4q-14 9 -26 11q-17 4 -23 -9q-2 -5 -1 -9t3.5 -8.5t5.5 -8.5l5 -6q9 -13 5 -7q3 -4 5 -8q0 -1 2 -5l1 -5q26 -71 5 -13l5 -14l7 -12l4 -3q1 -1 1 -3l-4 -16q-5 -16 -3.5 -34.5t9.5 -31.5q10 -16 21 -12q3 2 6 6q1 3 1.5 9.5t1.5 9.5v3q0 2 2 3v-1l7 -16q9 -14 26 -26l7 -7q4 -4 8 -6v1h-1q0 1 -2 2l-2 2q-7 6 -11 12q-11 15 -22 36q-3 6 -8 19l-1 4q-1 2 -3 3l-4 -6q-4 -5 -5 -7q-2 -6 -4 -15q1 8 -1 -15l-1 -1q-4 1 -7 6q-1 1 -4 8q-5 11 -5.5 26t3.5 27q0 -1 2 6q3 5 3.5 9t-0.5 6l-3 5l-4 4q-5 6 -7 12l-12 35q-2 4 -10 15l-6 8q-4 4 -5 7q-3 6 -1.5 8.5t3.5 2.5q3 3 12 -1l19 -10l5 -4l5 -3h4q3 -1 10 -1l10 -1q13 -5 28 -14q40 -25 61 -68q2 -2 4 -6l2 -7l20 -43l8 -13q1 -2 5 -3l8 -3l7 -2l13 -6q8 -4 20 -13l12 -7q2 -2 2 -4v0zM172 344q-4 0 -8 -1v-1q1 -2 4 -4l3 -4l4 -10l1 1q4 3 4 10l-2 4l-3 2z" />
			<glyph glyph-name="src_folder" unicode="&#xe062;" d="M380 327h-99l12 26h87v-26zM380 379h-113l-26 -52h-144v-206h309v258h-26zM261 148l51 47v-22l-38 -34l38 -33v-23l-51 48v17zM448 130l-51 -46v22l39 33v0l-39 34v22l51 -46v-19zM373 166l13 42q1 2 0 3t-3 1l-13 -3q-2 -1 -4 -3t-2 -3l-45 -139q0 -2 0.5 -3.5t2.5 -1.5l14 4q2 1 3.5 2.5t2.5 4.5z" />
			<glyph glyph-name="src_folder_open" unicode="&#xe063;" d="M385 359h-100l-23 -45h-126v-181h271v226h-22zM385 158h-224v133h224v-133zM385 314h-89l12 23h77v-23zM366 271h-271l41 -138h271zM261 148l51 47v-22l-38 -34l38 -33v-23l-51 48v17zM373 166l13 42q1 2 0 3t-3 1l-13 -3q-2 -1 -4 -3t-2 -3l-45 -139q0 -2 0.5 -3.5t2.5 -1.5l14 4q2 1 3.5 2.5t2.5 4.5zM448 130l-51 -46v22l39 33v0l-39 34v22l51 -46v-19z" />
			<glyph glyph-name="stylus" unicode="&#xe064;" d="M360 404q-3 0 -9.5 -2t-13.5 -8l-11 -13q-21 -22 -36 -53q-18 -32 -30 -72q-5 -19 -5 -32q0 -3 3 -6t7 -2q7 1 13 6q3 3 9 11v4q-6 -8 -9.5 -10t-5 -1t-1.5 3v12q0 20 8 43q10 26 16 38q15 32 33 51q10 15 27 17q9 0 11 -6v-2h1l2 2q3 7 3 10.5t-4 7t-8 2.5v0zM240 282q-6 0 -14.5 -5.5t-11.5 -11.5v-2q2 0 2 2q0 -1 2 1t4 3q4 5 7 4t4 -3.5t-1 -4.5q-1 -13 -6 -41q-8 -31 -19 -51q-16 -32 -36 -51q-15 -12 -25 -12q-5 0 -7 1.5t-3 6.5h-1l-1 2q-6 -8 -4 -16t7.5 -8t12 2t11.5 7l10 9q21 21 36 49q24 40 36 84l3 15q2 7 1 13q0 3 -2 5t-5 2v0z" />
			<glyph glyph-name="svg" unicode="&#xe065;" d="M186 333h89q0 16 -11.5 34.5t-29.5 30.5q-20 14 -42 14q-34 0 -59.5 -25t-25.5 -59q0 -22 13 -42q12 -18 30.5 -30t35.5 -12v89zM220 296h190v-191h-190v191z" />
			<glyph glyph-name="swift" unicode="&#xe066;" d="M161 311q-1 2 -1 3l-10 13q-10 9 -12 15v0q5 -6 14 -11l22 -18l9 -8q13 -9 10 -6q14 -12 21 -16l34 -25v2l-27 30q-12 14 -18 20l-14 18l-1 3l-13 17l-5 9l42 -39l18 -14l28 -21q30 -23 48 -34q2 -3 2 2q7 17 7 43q0 20 -7 38q0 3 -2 11q-8 16 -11 19q-2 8 -10 15v3q5 -3 14 -8q29 -23 51 -55v0q12 -23 13 -27q10 -25 10 -45v-1q0 -13 -1 -19l-3 -17q0 -3 1 -5q17 -21 21 -46q2 -4 2 -14q0 -7 -2 -11q0 -2 -0.5 -2t-1.5 1v1q-10 19 -27 21q-14 3 -31 -5l-18 -8q-30 -13 -62 -8q-24 2 -43 9h-1l-26 12q-41 22 -69 64l-1 1q1 0 2 -1q9 -7 14 -9l9 -5q5 -2 9 -3q9 -7 23 -9l3 -2q19 -5 45 -5q29 2 51 14q3 1 3 1.5t-3 1.5q-6 4 -14 11q-16 14 -14 13l-20 19q-5 3 -14 14l-27 30l-12 16q0 3 -5 7z" />
			<glyph glyph-name="terraform" unicode="&#xe067;" d="M211 333l84 -41v-85l-84 42v84zM396 333l-84 -41v-85l84 42v84zM110 384l84 -42v-84l-84 42v84zM211 232l84 -42v-84l-84 42v84z" />
			<glyph glyph-name="tex" unicode="&#xe068;" d="M162 210h-21h-6h56h-29zM355 227l-18 27l-18 -27l5 -1v-14h27v15h4zM152 227h-6h-11v-17h54v17h-16v81h6q10 0 13.5 -2t5.5 -11h15l-3 29h-96l-4 -45h15v6q1 12 2.5 16t5.5 5.5t14 1.5h5v-81zM250 182h-21v35h7q7 0 8.5 -1.5t1.5 -9.5v-6h14v50h-14v-6q0 -8 -1.5 -9.5t-8.5 -1.5h-7v30h21q13 0 16.5 -4.5t3.5 -18.5h15l-3 41h-88v-17h13v-80h-13v-16h89l5 32h-16q0 -10 -4.5 -14t-17.5 -4zM324 226h-7l20 27l18 -27h-4v-14h45v15h-6h-7t-2 2l-30 44l20 28q6 6 5 5q3 3 9 3h6v16h-38v-15h6l-2 -1l-14 -22l-16 21h3v17h-45v-17h6q6 0 7.5 -0.5t1.5 -2.5l27 -38l-23 -34l-4 -4q-3 -3 -10 -3h-6v-16h40v16z" />
			<glyph glyph-name="todo" unicode="&#xe069;" d="M251 386h88q19 0 32 -11.5t17 -28.5q2 -3 2 -9v-176q0 -19 -12 -32.5t-30 -16.5l-9 -1h-174q-22 0 -37 14.5t-15 35.5v174q0 20 11.5 33.5t30.5 17.5h96zM155 247v-87q0 -9 10 -9h173q4 0 7 3t3 7v173q-1 5 -4 7.5t-8 2.5h-172q-11 0 -11 -10q2 -28 2 -87zM191 267q4 -1 8 -3l35 -16q1 0 2 1q-13 -9 34 25q20 15 33 24q2 2 5 3l3 2q4 1 6 -2t2 -6l-2 -3q-1 -2 -1 -3l-65 -90q-7 -10 -15 -9.5t-13 9.5l-36 53q-3 3 -3 5q-1 4 1 7t6 3z" />
			<glyph glyph-name="twig" unicode="&#xe06a;" d="M314 389h5h-5zM300 382q8 6 14 7h7v-1h-4q-6 1 -14 -6h-3zM303 382q8 7 14 6q-7 -2 -10 -5l-7 -7h-4zM317 388h4q8 -1 15 -10v-1q-8 8 -15 9h-3q-4 -1 -7 -2l-4 -5q-1 1 0 4q3 3 10 5zM318 386h3q-2 -1 -3 0zM300 376l7 7q-1 -3 0 -4q-5 -5 -12 -19l-2 -2l1 1h-4l5 10zM289 373q1 0 4.5 4t6.5 5h3l-7 -6l-3 -4q-1 -1 -3 1l-1 -2v2zM336 378l2 -2l-2 1v1zM296 376h4l-5 -7l-2 -1h-2zM338 376q2 -2 2 -3q-2 1 -2 3v0zM290 373q2 -2 3 -1l-2 -4l-8 -12l-4 -9h-6l-2 -2q6 13 15 24l3 2zM293 368h1l1 1l-5 -9l-1 -1l-3 1q0 -1 -1 -2.5t-2 -1.5l8 12h2zM289 359v0l1 1v-1l-11 -24l-2 -7q-1 -1 -2 -3t-1.5 -2.5t-1.5 1.5l-2 1l9 22l4 9q1 0 2 1.5t1 2.5zM290 359h4l-1 -1q-7 -17 -10 -30l-6 1l2 6zM271 345q0 1 2 2h6l-8 -19l-2 -2q-2 4 -3 5t-1 -1l-1 -3q-1 -2 -2 -3l2 5zM265 330q0 2 1 1t3 -5q1 0 2 2v1l-1 -4q-5 -13 -6 -21l-6 -20l-2 -2q-5 -1 -5 -4v2q5 24 11 43v1q1 1 2 3zM277 329q2 0 5 -1q-1 0 -1 -3l-8 -32q0 -1 -1 -1l-4 1l-3 -3l6 20zM281 325q0 3 1 3zM274 322q0 1 1 3t2 3l-6 -18l-2 -3h-3v1h-1q0 -3 -1 -4q1 8 6 21l2 -1q1 -2 2 -2zM269 307q2 2 2 3l-6 -27q-1 -1 -2 -3l-2 -5q-3 -1 -4 -2v-4v10q1 3 1 5l6 20q1 1 1 4h1v-1h3zM268 293q2 -1 4 -1l-5 -28h-1l1 6q-1 1 -2 0l-3 -1l-1 -2l4 23zM256 282q0 1 2 2q0 -2 -1 -5v-6h-7q-1 0 0 2l1 3q0 3 5 4zM261 275q1 1 2 4t2 4l-4 -18l-1 1v-2h-2.5t-0.5 0l-1 -1v2l1 8q1 1 4 2zM250 273h7l-1 -8h-4q-2 0 -3 -0.5t-1 -2.5q0 5 2 11zM262 269q1 0 2.5 1t2.5 0l-2 -15v3h-5l-1 -3l2 12zM260 264v2l1 -1l-3 -9h-2l-2 -2l1 6l2 4q-1 0 0.5 0h2.5zM249 264q1 1 3 1h4v-2l-2 -6q-1 -1 -3 0h-3l-1 -3q0 3 1 8q0 2 1 2zM295 263l2 1h2q-17 -18 -25 -53h-4q4 15 6 20q4 12 8 20q2 2 1.5 3t1.5 2q5 6 8 7zM258 256q1 2 1 3v-4l-2 -6l-2 1l-2 -3l1 7l2 2h2zM260 258h3h2v-3v-3v-11h-1v3l-1 2l-3 1q-2 0 -2 -2h-1v2l2 8zM248 257h3h3l-1 -10l-1 -2l-3 1q-2 0 -2 -2t-1 -5l1 10v5zM265 252v3q1 -2 0 -3zM257 249l1 3l1 3l-2 -12l-3 1q0 -1 -1 -3v6l2 3zM281 248q4 5 4.5 5t-1.5 -2q-4 -8 -8 -20q-2 -5 -6 -20q-1 -1 -1 -5l-1 -5q-1 0 -2 2l-1 1h-2q0 3 5 17q6 18 13 27zM252 245q0 1 1 1v1l-2 -34q-1 -2 0 -13l-1 -15l-5 10l-2 1l1 -2l2 -9q2 -6 2 -9l-1 2q-1 9 -4 14l-1 3l2 26v6q0 3 1 8l1 4q1 3 1 5t2 2zM257 243v4v-2l-1 -9h-3l-1 -5l1 10q1 2 1 3zM258 245q0 2 2 2l3 -1q1 0 1 -2v-3q0 -5 -1 -10l-2 -33l-1 -5q-1 0 -1 -2l-2 -2v7v8q-1 6 -1 15q-1 -59 1 15zM257 245h1l-1 -11q-3 -17 -1 -35l-4 -18l-1 -1v33l1 18l1 5h3zM172 244l1 -3l-1 -2v5zM172 239l1 2l2 -12q0 -3 1 -9t-1 -8l-1 1l-1 13zM245 235v3l1 1zM172 235q1 -1 1 -5h-1v5zM256 199q-2 18 1 35q-2 -74 -1 -15q0 -9 1 -15v-8v-7l2 2l-3 -17l-1 1h-3q-1 -1 -2 -1l1 6l1 1zM263 228v3v-3zM198 228q-1 -1 -1.5 0.5t1.5 0.5q8 1 16 -2v-1l-3 -3q3 -2 -6 3q-4 2 -7 2zM175 212q2 2 1 8t-1 9l3 -11q-1 1 -1.5 -0.5t0 -2.5t-0.5 -11l-1 -1q-1 0 -1 2v8zM262 224q0 2 1 4v-4h-1zM244 224q-1 2 0 3v-3zM173 226v-3v0q-1 2 0 3zM214 226q4 -1 6 -2l-2 -1l4 -3q1 -1 1.5 -4t1.5 -3v-4q-1 0 -2 2l-1 2q-8 8 -10 9l-1 1zM244 224v0v-3q-1 2 0 3zM218 223q1 0 2 1q10 -6 18 -20l-3 -1q0 -3 2 -7q2 -6 -1 -12v-6q-2 15 -11 31v4q-1 0 -1.5 3t-1.5 4zM262 224h1v-2q0 -1 -1 -1v3zM173 223v0v-2q-1 1 0 2zM243 218q0 -1 0 1t1 2zM173 221v0v-4v4zM176 215q0 1 0.5 2.5t1.5 0.5l1 -7l-1 -1q-1 -1 0 -2v-7l-1 -2l-1 5q1 10 0 11zM173 217q1 0 1 -4h-1v4zM262 214v3v-4v1zM261 209q0 4 1 5zM173 213h1v-3h-1v3zM251 200q-1 11 0 13v-13zM268 201q0 1 0.5 5t1.5 5h4v-6l-1 -4v-3l-1 -2q-1 0 -2 -1l-2 -2l-2 -7q0 -6 -1 -8h-3q-5 1 -3 1q-2 0 -1 2q1 7 3 16q1 1 0 3l1 1q1 2 1 3h2l1 -1zM178 208q-1 1 0 2l1 1l1 -10q-1 0 -1 -1v-6l-1 -3l-2 4l1 4l1 2v7zM274 205v6v-3v-3zM173 210h1v-4h-1v4zM242 207q0 2 1 3zM261 209h1v-3zM242 207h1l-1 -6v6zM173 206h1v-4q-1 0 -1 2v2zM261 206h1v-3l1 1q0 -1 -1 -3zM261 198v4v4l1 -5zM174 205q0 -2 1 -2l1 1l1 -5l-1 -4h-2v10zM235 203q1 1 3 1q2 -2 2 -7v-1v-6q1 -3 1 -5l-4 -11l-1 10q3 6 1 12q-2 4 -2 7zM242 199v2v2v-4zM273 198v3q1 -2 0 -3zM179 200q0 1 1 1v-4q1 -1 0.5 -2t-0.5 -3q0 -7 1 -14l1 -8l-1 -1h-2l-1 22l1 3v6zM261 198v1v1q1 -2 0 -3q-2 -9 -3 -16q-1 -2 1 -2q-2 0 3 -1h3q1 2 1 8l2 7l2 2q1 1 2 1l-1 -15l-3 -2q-2 -1 -2 -2l-1 -4q-1 0 -3 1.5t-3.5 1.5t-1.5 3zM242 199v0v-4v4zM174 198v-3v-1v4zM240 196v1l3 -5v-1q-1 -1 -1 -3l1 -9l-3 -4v-5q-1 -1 -1 -3v-4h-1v3q1 2 0 3t-1 5l4 11q0 2 -1 5v6zM272 196h1v-1.5t-1 -1.5v3zM244 194l-1 2l2 -1l5 -10v-7l-2 -2v-3h-1q1 1 1 3q0 3 -2 9zM174 195q1 0 2 -1l2 -3v-15l-1 6q-1 0 -2 -1l-1 -2v16zM180 192q0 2 1 3l3 -25v0h-2l-1 8q-1 7 -1 14zM174 194v0v-5v5zM259 191q0 2 1 2l-1 -3v1zM243 192q3 -5 4 -14l-1 2zM242 187v1l1 3l3 -11l-1 -1l-1 -1v-2q1 2 -2 -2l-2 -4l1 -6q0 -7 1 -7l-3 -11v17l1 7v5l3 4zM174 189v0v-4v4zM271 183q1 3 1 4v-4h-1zM271 181v2v-5v3zM174 179q0 1 1 2t2 1l1 -6v-5q0 -3 -1 -2.5t-1 1.5l-1 1zM267 180q3 0 4 1v-6q-1 0 -2.5 -1.5t-2.5 -1.5l-1 -4q0 2 -2 4t-4 2.5t-2 2.5v2q0 -3 1.5 -3t3.5 -1.5t3 -1.5l1 4q0 1 1 3zM245 179l1 1v-2zM174 179q0 -1 1 -4h-1v4zM244 176q1 1 0.5 1.5t0.5 1.5l2 -1l-2 -1l-1 -3q-4 -4 -3 -8l4 -6q1 -3 -1 -7l-2 -9q0 -11 1 -17l-3 2l-2 9l1 8l3 11l-2 13l2 4q3 4 2 2zM244 174q0 1 1 3l2 1q1 -1 -0.5 -2t-3 -3t-1.5 -3q-2 -5 4 -9q1 0 2 -1q0 -6 -1 -15v-18h-4q-1 6 -1 17l2 9q2 4 1 7l-4 6q-1 4 3 8zM247 178q1 -1 1 -2.5t-2.5 -3t-2.5 -3.5t2 -4q3 -4 3 -3v-5v-6q1 -9 1 -24h-2v18q1 9 1 15q-1 1 -2 1q-6 4 -4 9q0 1 1.5 3t3 3t0.5 2zM248 176l2 2v-6l-2 1v3zM271 178v0v-7v7zM256 174q0 1 1 3q0 -2 2 -2.5t4 -2.5t2 -4l1 4q1 0 2.5 1.5t2.5 1.5v-4l-3 -3l-2 1l-1 -19l-1 -4h-7q-2 1 -2 4l2 -3v2q2 1 3 0l4 2l1 15l-3 -4q-5 -1 -5.5 -0.5t-2.5 -0.5v1q1 1 3 1t4 1t2 3.5t-1.5 4t-3.5 2.5h-2zM158 177q2 -1 6 -6l-1 -1h-1zM250 174q1 0 2 1h4v-3q-2 -1 -2.5 -2.5t1.5 -3.5l-1 -3q-1 -1 -2 -1t-1 1l-2 3q2 2 2 3t-1 3v2zM174 175h1v-5h-1v5zM256 175v-1h2l4 -2q3 -2 1 -4t-1.5 -3.5t-4 -1t-3.5 -1.5l1 4q1 -1 3 -0.5t3 2.5t-1.5 3.5t-3.5 0.5v3zM243 168q0 3 4 5h1l2 -1q1 -2 1 -3t-2 -3l-1 -1q-3 -1 -5 3zM256 172q1 1 3.5 -0.5t1.5 -3.5t-3 -2.5t-3.5 1t-1 3t2.5 2.5zM175 171l1 -1l1 -1q2 -2 1 2l1 -7l-3 1l-1 2v4zM270 170l1 1v-3zM163 170l1 1q4 -4 7 -10l-3 -4zM182 170h2l1 -5q-2 0 -2 -3v-2l-2 -2h-2v3h1.5t2.5 1zM268 168q1 2 2 2v-14q-1 1 -2 -1l-3 -2v-3l1 19zM181 169l1 1l1 -5h-3l-1 -1v5h2zM174 170h1v-7h-1v7zM238 170q1 -2 0 -4v0q-1 2 0 4zM248 162q0 -1 -3 3q-2 2 -2 3q2 -4 5 -3h-1l2 -3l2 -3v-6h-1v-15q-1 -8 0 -11h-1q0 15 -1 24v6v5zM271 168v0v-10v10zM175 167l1 -2l3 -1v-2l-1 -1q0 -1 -2 0h-1v6zM238 166v0v-3v3zM248 165q0 1 1 1l2 -3v-4l-2 3l-2 3h1zM262 162q0 1 3 4l-1 -15l-4 -2q-1 1 -3 0v-2l-2 3l-1 11q2 1 2.5 0.5t5.5 0.5zM179 164q0 1 1 1h3v-3q-1 -1 -2.5 -1h-1.5v3zM183 160v2l2 3q1 -3 0 -3.5t-1 -1.5v-4q-1 -3 -1 -4l-4 -3v9h2zM251 163q0 -1 1 -1t2 1l-2 -11l-1 1v10zM238 163h1v-3h-1v3zM179 162v-1v-5h-4v2q-1 2 0 3h1q2 -1 2 0zM168 157q0 1 3 4q2 -3 3 -7l3 -8q-1 0 -1 -2v-3q-4 -2 -3 -1q-2 -1 -2 -3v0q0 5 -3 20zM184 160q0 1 1 1l1 -9q1 4 1 -3q0 -2 -1.5 -2.5t-2.5 -2.5l-1 -5l-1 -1l-1 -6l-1 6v11l4 3q0 1 1 4v4zM238 160h1v-13h-1v13zM252 152q1 1 1 3l1 4l1 -9q0 -3 2 -4h7l1 4l-1 -9q-2 1 -4 -0.5t-3 -0.5l-1 4l-3 1zM271 158v0v-3v3zM175 158v-2v-3l-1 1zM175 156h2h2v-18l-1 1q1 2 0 4q-2 10 -1 3l-2 7v3zM265 153q0 1 2 2.5t3 0.5l1 -1q-1 -2 0 -4v-2l-1 2q-5 -2 -4 -2q-1 -1 -1 -4v5v3zM271 155v0v-5v5zM271 151q-1 2 0 4v-4zM197 154h5h-5zM187 149q5 5 10 5h7q1 0 0 -0.5t-3 -0.5q-5 0 -8 -6l-2 -3l-2 -9v0l-1 5q4 -4 -3 1q-2 1 -1 3l1 2q2 1 2 3q0 7 -1 3h1v-3zM201 153h4h-4zM250 153h1l1 -1v-4q0 -2 1 -3v-9l2 -8q-2 0 -2 -1t-1 -1l-2 1q-1 3 0 11l-1 11zM252 151q1 -1 1 -3v-3q-1 1 -1 3v3zM265 145q0 3 1 4q-1 0 4 2l1 -2v-3l-6 -3q-1 -4 0 -14v-1h-1q0 12 1 17zM271 150v0v-4v4zM235 147q1 -1 0 -1v-4v5zM238 147h1l-1 -5v5zM264 141q0 5 1 6v-2q-1 -5 -1 -17h-7q0 -1 0 7q0 3 -1 6q-2 0 -3 2v2l3 -1l1 -4q1 -1 3 0.5t4 0.5zM176 141v3l1 2q-1 7 1 -3q1 -2 0 -4q-3 1 -3 -1.5t3 -3.5h-2l2 -2v-5h-6l-1 10q0 2 2 3q-1 -1 3 1zM183 144q1 2 2 2l-1 -2h-1zM265 143q1 1 3 1l3 2v-5l-6 -7v-5q-1 10 0 14zM271 146v0v-3v3zM235 142v4l2 -7q1 -1 1 1v-2l2 -9l1 -1q-1 0 -1 -1l1 -3h-2q-2 0 -3 1v9q0 5 -1 8zM271 144q1 0 1 -1v-2h-1v3zM183 144h1q-1 -2 1 -3q7 -5 3 -1l1 -5l-1 -5q-1 0 -2 -1v-3l-2 -4h-4l-1 5l2 -1l3 1q2 4 2 6h-2l-4 -1l1 6q-1 -3 1.5 -3.5t3.5 1t-1 3t-3 0.5zM253 143q1 -2 3 -2q1 -3 1 -6q0 -8 0 -7l-1 5q-1 0 -1.5 1.5t-1.5 1.5v7zM235 142q1 -3 1 -8v-9h-1v17zM271 141v0l2 -13h-8v1v5zM271 141h1v-5zM182 139q1 1 3 -0.5t1 -3t-3.5 -1t-1.5 3.5zM175 137q0 3 3 2l1 -1v-2l-1 -2q-3 1 -3 3zM276 131l5 8l-6 -14h-2zM253 136q1 0 1.5 -1.5t1.5 -1.5l1 -5h-2zM178 134q1 1 1 2v-9q0 -2 1 -7l-1 2v5l-1 5l-2 2h2zM222 135l2 -1l5 -5q-2 -1 -3 0q1 -1 -2 3zM289 134v0q-1 -4 -3 -6h-3zM226 132q2 0 4.5 1t4.5 1v-1q-2 0 -4 -1.5t-1 -3t5 -1.5v-1q-7 1 -12 3q0 2 1 3q3 -4 2 -3q1 -1 3 0zM272 134q1 0 1 -1v-1l3 -1l-2 -4q0 1 -1 0zM180 132q1 1 4 1h2q0 -2 -2 -6l-3 -1l-2 1zM188 130v3v-4v1zM231 131q2 2 4 2v-1q-3 0 -3 -2.5t3 -2.5v0q-4 0 -5 1.5t1 2.5zM178 132q1 -2 1 -5v-11h-3l-3 1l-1 2v8h6v5zM232 130q0 2 3 2v-5q-3 0 -3 3zM169 130v-1v-2q-1 0 -1 1zM186 129q1 1 2 1v-3q-2 0 -2 -1v3zM169 127v2l5 -15h-3zM188 129v0q1 -2 0 -3v3zM172 128v-1v-3v4zM240 127q0 1 1 1l1 -1h7l3 -1h-5zM241 128q1 0 2 -1h6h-7zM253 127q0 1 2 1h2q0 -1 -1 -1h-3zM257 128h4q-4 -1 -7 -1h2q1 0 1 1zM261 128h3q-1 -1 -3 -1h-7v-1h-2q1 0 1 1h1q3 0 7 1zM264 128v0h9v-1h-15h3q2 0 3 1zM273 127q1 1 1 0l-1 -1v1q-16 -3 -32 -2l-1 2l7 -1h7q5 0 8 1q5 -1 9 0h2zM198 127h1l-2 -12l-3 1zM258 127h6h4h-5l-9 -1zM268 127h3q-4 -1 -9 0h6zM180 120q-1 5 -1 7l1 -5h4l1 3l1 -6l-6 -1v2zM186 126q0 1 2 1l1 -7q-1 1 -2 1l-1 -2v7zM254 127h4l-4 -1v1zM188 126v0q1 -2 0 -4v4zM204 123h1l-1 -5h-3zM161 122q1 0 1 -2l2 -2q3 -1 1.5 -1t-3.5 2zM179 122l1 -2l-1 -4v0v6zM188 122q1 0 1 -1v-3zM170 121v-6q-1 0 -2 1t0 2l2 2v1zM186 119q0 1 1 1v1q1 0 2 -1l1 -4l-4 -1v4zM164 118q1 1 3 1l3 1q0 -1 -1 -2h-1v-2q1 -1 2 -1h1q-5 1 -7 2q3 0 0 1zM189 119q6 -1 7 -1l-2 -2q-6 -2 -13 -2l5 1q5 1 6 2t-3 2v0zM160 118q1 0 2 1q2 -2 3 -2l6 -2v-1l-9 1l-2 2q-1 1 0 1zM180 118l6 1v-4l-6 -1v4zM189 119q4 -1 3 -2t-6 -2l4 1zM173 117q2 0 3.5 -1t2.5 0v-1l-5 1zM176 116q2 1 3 0v0q-1 -1 -3 0zM174 116l5 -1h1h-6v1zM174 115h3h3l-6 -1v1zM174 114q1 1 6 1v-1h-8h2z" />
			<glyph glyph-name="typescript" unicode="&#xe06b;" d="M244 311h-52v-149h-36v149h-52v28h137v-28h3zM357 207q0 9 -7 16q-5 3 -12 5l-14 7q-31 10 -48.5 23t-17.5 34t19 34t48.5 13t47 -15.5t17.5 -38.5h-33q0 12 -9.5 20t-23.5 8t-22.5 -6t-8.5 -15.5t8.5 -15t31.5 -13.5q29 -7 44.5 -20t15.5 -36.5t-18 -36.5t-48.5 -13t-52 16.5t-19.5 42.5h36q0 -16 10.5 -23.5t27 -7.5t22.5 7.5t6 14.5z" />
			<glyph glyph-name="typings_folder" unicode="&#xe06c;" d="M295 195v-124h-30v124h-41v21h111v-21h-40zM421 110q0 7 -6 12q-2 4 -7 6l-13 5q-26 7 -39.5 18t-13.5 28t15 28t38.5 11t38 -13t14.5 -32h-27q0 10 -7.5 16.5t-19 6.5t-18 -4.5t-6.5 -12t8 -13.5q5 -4 23 -9q25 -7 37 -18t12 -30t-14 -28q-15 -11 -39.5 -11t-40.5 12q-18 15 -17 35h30q0 -13 7.5 -19t21.5 -6t18 5q5 7 5 13zM380 327h-99l12 26h87v-26zM380 379h-113l-26 -52h-144v-206h309v258h-26z" />
			<glyph glyph-name="typings_folder_open" unicode="&#xe06d;" d="M385 359h-100l-23 -45h-126v-181h271v226h-22zM385 158h-224v133h224v-133zM385 314h-89l12 23h77v-23zM366 271h-271l41 -138h271zM295 195v-124h-30v124h-41v21h111v-21h-40zM421 110q0 7 -6 12q-2 4 -7 6l-13 5q-26 7 -39.5 18t-13.5 28t15 28t38.5 11t38 -13t14.5 -32h-27q0 10 -7.5 16.5t-19 6.5t-18 -4.5t-6.5 -12t8 -13.5q5 -4 23 -9q25 -7 37 -18t12 -30t-14 -28q-15 -11 -39.5 -11t-40.5 12q-18 15 -17 35h30q0 -13 7.5 -19t21.5 -6t18 5q5 7 5 13z" />
			<glyph glyph-name="vala" unicode="&#xe06e;" d="M269 294q18 0 35 -5l7 -3q12 -5 15 -15t-2 -22q-1 -5 -7 -10l-8 -10l-18 -13q-44 -29 -19 -13l-17 -9l-14 -12l-7 -8q-5 -7 -2 -15q7 -14 23 -19q9 -2 14.5 3t6.5 14v5q0 6 5 11q8 5 16 7q15 2 23 0h4q6 -2 7.5 -5.5t0.5 -9.5q-7 -24 -26 -41q-18 -15 -39 -17q-17 -3 -35 4q-56 22 -75 80q-7 21 -1 39.5t24 33.5q19 19 56 25q12 3 16 3q8 2 17 2zM287 336q3 35 30 50q18 8 34 4q9 -2 13 -7.5t2.5 -15.5t-10.5 -21l-12 -17q-9 -8 -17.5 -14t-17.5 -8q-15 -2 -19 10q-3 9 -3 19zM267 360q0 -21 -10 -34q-2 -4 -5 -6.5t-7.5 -2.5t-8.5 3.5t-7 12.5q-4 17 0 32t21 15q12 0 14 -9q2 0 2 -4t1 -7zM208 329q0 -14 -4 -19q-2 -5 -6.5 -6t-10.5 3q-11 10 -13 26v10q0 6 5.5 11t12.5 5t10 -7q6 -6 6 -18v-5zM168 288q0 -3 -2.5 -9.5t-8.5 -4.5q-2 0 -3 1q-9 4 -14.5 13.5t-5.5 19t11 15.5q6 2 12 -4.5t9 -21.5q2 -5 2 -9v0z" />
			<glyph glyph-name="vb" unicode="&#xe06f;" horiz-adv-x="0" d="M336 149q23 -1 38 15q11 13 15 30q0 22 -6 36q-11 12 -26 15h-4v7l3 1q15 0 22 15q8 11 8 24q0 20 -14 30q-17 12 -41 11h-58v-184h63zM328 172h-2h-23v61h23q11 1 21 -7q9 -10 9 -23t-9 -22t-19 -9zM327 262h-2h-21v49h20q32 0 32 -22q1 -12 -9 -21q-9 -6 -20 -6zM163 152h36l54 182h-29l-35 -131q-3 -12 -3 -19l-1 -3h-7l-2 4q-1 12 -2 18l-37 131h-29z" />
			<glyph glyph-name="video" unicode="&#xe070;" d="M252 114q-37 0 -68.5 18.5t-50 50.5t-17.5 69t19 67.5t49.5 48.5t68.5 18t68 -18.5t49.5 -50.5t17.5 -69t-19.5 -67.5t-49.5 -48.5t-67 -18zM204 335v-2v-166h1l123 83h-1q-81 55 -123 82q1 1 1 2t-1 1z" />
			<glyph glyph-name="vim" unicode="&#xe071;" horiz-adv-x="514" d="M273 212q0 -1 1 -1h1h12h1.5t0.5 1l3 3q1 0 1 0.5v0.5l4 12v1.5t-1 1.5l-3 2q0 1 -0.5 0.5t-1.5 -0.5h-11l-1 1h-0.5h-0.5l-4 -3l-0.5 -0.5t-0.5 -1.5l-4 -11v-2t1 -1l3 -3v0zM275 151h-1h-3l17 48q0 1 -0.5 2.5t-1.5 1.5l-1 1h-28l-1.5 -1.5t-0.5 -1.5l-2 -6q0 -1 1 -2t2 -1v0h4l-16 -47q-1 -2 -0.5 -3t2.5 -2v-1h26q1 0 2 1t1 2l2 6q0 1 -0.5 2t-1.5 1v0v0zM396 196l-4 6v0l-1.5 1.5l-0.5 0.5h-17q-1 0 -1.5 -1l-0.5 -1l-5 -5h-7l-5 5v0q0 1 -0.5 1.5t-1.5 0.5h-9l46 46l-52 51l46 47v21l-6 8h-93l-8 -8v-7l-26 27l-17 -17l-6 5h-92l-7 -8v-22l7 -6h6v-60l-31 -32l31 -32v-73l12 -7h27l21 22l49 -49l33 33q0 -1 0.5 -1t1.5 -1l1 1h21h2t1 1l2 5q0 1 -0.5 2t-1.5 1h-1h-1l8 24l5 6h12l-12 -37q0 -1 0.5 -2t1.5 -1h1h21q1 0 1.5 0.5l1.5 1.5l1 4q1 1 0.5 2t-1.5 2h-0.5h-0.5h-1l10 29h13l-11 -36q-1 -1 0 -2t2 -1l1 1h22h2t1 1l2 5q1 1 0.5 2t-2.5 1v0h-1h-2l13 42q1 1 0.5 2l-0.5 1v0v0zM250 384l26 -26v-10l8 -10h4l-67 -64v64h8l6 10v20v1l15 15v0zM114 249l27 28v-55l-27 27v0zM203 162l133 137l49 -49l-46 -46h-1q0 -1 -0.5 -1.5l-0.5 -0.5l-5 -5h-7l-5 5q0 1 -0.5 1.5t-1.5 0.5h-20q-1 0 -2 -1t-1 -2l-2 -5q0 -2 0.5 -2.5l1.5 -1.5h4l-15 -43l-35 -35l-46 48v0z" />
			<glyph glyph-name="vsc" unicode="&#xe072;" horiz-adv-x="500" d="M397 127l-70 -28l-121 118l-73 -55l-28 14v146l28 14l73 -56l121 119l70 -28v-244zM321 301l-70 -52l70 -52v104zM139 280v-63l36 32z" />
			<glyph glyph-name="vscode_folder" unicode="&#xe073;" d="M380 327h-99l12 26h87v-26zM380 379h-113l-26 -52h-144v-206h309v258h-26zM321 301l-70 -52l70 -52v104zM139 280v-63l36 32zM423 71l-29 -12l-51 49l-30 -23l-12 6v61l12 6l30 -24l51 50l29 -12v-101zM391 143l-29 -21l29 -22v43zM316 134v-26l15 14z" />
			</font>
</defs>
</svg>
